<?xml version="1.0" encoding="UTF-8"?><svg xmlns="http://www.w3.org/2000/svg" viewBox="0 0 155.57 168.69"><defs><style>.cls-1{fill:#fff;}.cls-2{isolation:isolate;}.cls-3{mix-blend-mode:multiply;opacity:.68;}.cls-3,.cls-4{fill:#de703b;}.cls-5{fill:#8fb56c;}.cls-6{fill:#e44b45;}</style></defs><g class="cls-2"><g id="Layer_2"><g id="Layer_26_copy"><g><path class="cls-6" d="M78.5,62.32c-14.23-3.1-29.49-1.25-42.57,5.17-13.08,6.41-23.89,17.35-30.15,30.5-7.29,15.31-8.13,34.13,.03,48.99,8.16,14.87,26,24.52,42.59,20.98,9-1.92,17.21-7.35,26.4-7.73,6.92-.28,13.62,2.34,20.52,3.01,16.51,1.6,32.27-8.3,43.01-20.94,10.77-12.67,17.96-28.98,17.17-45.59-.79-16.61-10.57-33.16-25.93-39.53-8.36-3.46-17.78-3.81-26.68-2.18-8.9,1.63-17.34,5.16-24.4,7.32Z"/><path class="cls-5" d="M20.09,30.5c2.85,9.98,12.34,22.65,20.21,24.72,9.13,2.41,12.05,2.01,23.54-1.86,5.33-1.8-7.98-12.71-13.64-19.26-2.28-2.64,7.42,3.92,10.18,5.49,2.76,1.57,6.37,4.6,10.63,3.6,.02,0,.03-.01,.04-.03,2.79-2.48,.59-8.46-.44-12.37-1.15-4.38-2.58-7.87-4.86-11.69-3.09-5.17-6.82-9.38-11.82-12.1C41.62,.28,35.75,.86,17.62,.57c-7.09-.11-4.99,3.75,2.47,29.92Z"/><path class="cls-1" d="M47.93,75.57c-8.58,.65-16.95,3.99-22.51,9.84s-8.01,14.3-5.54,21.9c.22,.68,.66,1.49,1.44,1.52,.99,.03,1.32-1.16,1.38-2.06,.41-6.42,3.21-12.58,7.56-17.55,4.35-4.97,10.2-8.76,16.65-11.24,.69-.27,1.45-.56,1.8-1.16s.06-1.31-.77-1.25Z"/><path class="cls-4" d="M79.4,54.85c-2.52-.66-3.73-3.54-4.13-6.11-1.45-9.3,2.81-18.47,7.35-26.72,3.27-5.95,6.81-11.88,11.75-16.55,2.86-2.71,6.34-5.02,10.26-5.41s8.26,1.6,9.59,5.31c.76,2.12,.46,4.51-.4,6.58s-2.25,3.89-3.7,5.61c-4.12,4.86-8.9,9.12-13.27,13.77s-8.39,9.78-10.61,15.76c-.64,1.73-1.13,3.53-2.15,5.07s-2.76,3.21-4.7,2.7Z"/><path class="cls-3" d="M75.98,51.67c.67,1.51,1.73,2.76,3.29,3.18,1.94,.51,3.69-1.17,4.7-2.7,1.01-1.54,1.51-3.35,2.15-5.07,2.21-5.98,6.23-11.12,10.6-15.76s9.15-8.9,13.27-13.77c1.46-1.71,2.85-3.53,3.71-5.6,.86-2.08,1.15-4.47,.39-6.59-1.33-3.71-5.67-5.7-9.59-5.31-.93,.1-1.84,.3-2.72,.6,1.51,.47,5.39,2.61,6.22,4.47,1.26,2.83,.63,5.49-.53,8.36-1.17,2.87-3.21,5.3-5.45,7.44-2.24,2.14-4.69,4.04-6.92,6.18-4.94,4.75-8.72,10.68-10.94,17.16-.72,2.08-1.3,4.27-2.69,5.98-1.3,1.61-3.59,2.21-5.49,1.43Z"/></g></g></g></g></svg>