<?xml version="1.0" encoding="UTF-8"?><svg xmlns="http://www.w3.org/2000/svg" viewBox="0 0 233.65 213.1"><defs><style>.cls-1{isolation:isolate;}.cls-2{fill:#fc8077;}.cls-3,.cls-4{fill:#e44b45;}.cls-4{mix-blend-mode:multiply;opacity:.3;}</style></defs><g class="cls-1"><g id="Layer_2"><g id="Layer_79"><path class="cls-2" d="M233.65,50.78c-.06,.46-.13,.92-.22,1.37-1.44,7.74-6.4,14.76-13.25,18.64-6.34,3.59-14.61,5.04-18.22,11.36-3.91,6.84-.32,16.27-4.61,22.86-2.72,4.17-7.94,6.02-12.9,6.44-4.95,.42-9.95-.29-14.91,.1-9.94,.78-19.41,6.25-25.06,14.46-6.66,9.67-7.91,22.27-14.54,31.97-6.91,10.12-18.76,15.73-30.52,19.19-11.77,3.46-24.07,5.27-35.34,10.11-8.2,3.52-16.02,9.07-20.15,16.59-1.55,2.81-2.58,5.88-2.93,9.23,.01-.07,.01-.13,.02-.2l-4.76-5.9-11.27-13.96-13.6-16.84L.17,162.3c-1.38-10.64,5.66-20.89,14.61-26.82,8.94-5.93,19.61-8.54,29.86-11.71,10.26-3.16,20.73-7.27,27.88-15.28,6.94-7.78,9.86-18.23,14.05-27.78,4.19-9.56,10.81-19.24,20.93-21.77,10.1-2.52,21.06,2.81,31.01-.25,6.1-1.87,10.91-6.68,14.29-12.08,3.39-5.41,5.57-11.46,8.13-17.29,1.92-4.37,4.12-8.69,6.88-12.55,1.67-2.33,3.54-4.49,5.68-6.4,5.71-5.08,22.11-10.37,22.11-10.37,0,0,4.73,5.12,9.93,11.66,3.48,4.36,7.16,9.35,9.8,13.87,1.62,2.78,3.29,5.3,5.03,7.74,3.97,5.54,8.31,10.68,13.29,17.51Z"/><path class="cls-3" d="M205.53,11.66c-4.5,.69-8.93,2.76-12.44,5.67-6.88,5.7-11.05,13.94-15.07,21.91-4.03,7.97-8.32,16.17-15.34,21.69-8.65,6.8-20.09,8.52-30.79,11.03-10.71,2.52-22.11,6.76-27.64,16.27-3.96,6.81-4.23,15.26-8.07,22.14-4.14,7.42-11.93,12.09-19.9,15.02-7.97,2.93-16.4,4.46-24.33,7.49-19.12,7.32-34.32,23.88-40.56,43.32L.17,162.3c-1.38-10.64,5.66-20.89,14.61-26.82,8.94-5.93,19.61-8.54,29.86-11.71,10.26-3.16,20.73-7.27,27.88-15.28,6.94-7.78,9.86-18.23,14.05-27.78,4.19-9.56,10.81-19.24,20.93-21.77,10.1-2.52,21.06,2.81,31.01-.25,6.1-1.87,10.91-6.68,14.29-12.08,3.39-5.41,5.57-11.46,8.13-17.29,3.08-6.99,6.85-13.88,12.56-18.95,5.71-5.08,22.11-10.37,22.11-10.37,0,0,4.73,5.12,9.93,11.66Z"/><path class="cls-3" d="M233.65,50.78c-1.08,8.27-6.22,15.9-13.47,20.01-6.34,3.59-14.61,5.04-18.22,11.36-3.91,6.84-.32,16.27-4.61,22.86-2.72,4.17-7.94,6.02-12.9,6.44-4.95,.42-9.95-.29-14.91,.1-9.94,.78-19.41,6.25-25.06,14.46-6.66,9.67-7.91,22.27-14.54,31.97-6.91,10.12-18.76,15.73-30.52,19.19-11.77,3.46-24.07,5.27-35.34,10.11-11.27,4.83-21.81,13.51-23.08,25.82,.01-.07,.01-.13,.02-.2l-16.03-19.86c5.14-23.96,24.16-44.81,47.95-51.19,12.39-3.33,26.51-3.45,36.09-11.98,10.49-9.35,12.06-26.03,22.87-35,10.16-8.42,25.13-7.41,37.07-13.04,19.5-9.21,27.06-33.83,45.18-45.51,1.92-1.24,4.02-2.31,6.21-3.05,3.97,5.54,8.31,10.68,13.29,17.51Z"/><path class="cls-2" d="M233.43,52.15c-1.44,7.74-6.4,14.76-13.25,18.64-6.34,3.59-14.61,5.04-18.22,11.36-3.91,6.84-.32,16.27-4.61,22.86-2.72,4.17-7.94,6.02-12.9,6.44-4.95,.42-9.95-.29-14.91,.1-9.94,.78-19.41,6.25-25.06,14.46-6.66,9.67-7.91,22.27-14.54,31.97-6.91,10.12-18.76,15.73-30.52,19.19-11.77,3.46-24.07,5.27-35.34,10.11-11.27,4.83-21.81,13.51-23.08,25.82,.01-.07,.01-.13,.02-.2l-4.76-5.9c3.5-14.05,13.79-26.48,27.34-31.76,17.69-6.89,39.81-2.79,54.15-15.22,7.78-6.75,11.39-16.95,15.54-26.37,4.15-9.42,9.9-19.19,19.52-22.86,12.25-4.68,24.93-3.29,35.15-11.5,9.91-7.96,10.64-19.1,18.07-29.41,5.16-7.16,14.04-10.31,21.88-14.37,1.87-.97,3.75-2.09,5.52-3.36Z"/><path class="cls-4" d="M156.41,50.96c-6.39,9.31-16.04,15.57-27.29,16.62-9.17,.86-19.46-1.28-26.8,4.26-6.59,4.97-7.97,14.06-10.61,21.87-5.11,15.14-16.9,27.88-31.59,34.15-7.96,3.4-16.59,4.95-24.63,8.15-8.04,3.2-15.86,8.59-18.85,16.71-4.43,12,2.93,24.85,9.99,35.51,4.38,6.63,9.92,13.9,17.3,15.64-1.55,2.81-2.58,5.88-2.93,9.23,.01-.07,.01-.13,.02-.2l-4.76-5.9-11.27-13.96-13.6-16.84L.17,162.3c-1.38-10.64,5.66-20.89,14.61-26.82,8.94-5.93,19.61-8.54,29.86-11.71,10.26-3.16,20.73-7.27,27.88-15.28,6.94-7.78,9.86-18.23,14.05-27.78,4.19-9.56,10.81-19.24,20.93-21.77,10.1-2.52,21.06,2.81,31.01-.25,6.1-1.87,10.91-6.68,14.29-12.08,3.39-5.41,5.57-11.46,8.13-17.29,1.92-4.37,4.12-8.69,6.88-12.55,2.92,10.84-5.04,24.92-11.4,34.19Z"/></g></g></g></svg>