<?xml version="1.0" encoding="UTF-8"?><svg xmlns="http://www.w3.org/2000/svg" viewBox="0 0 252.75 252.72"><defs><style>.cls-1{fill:#8a553b;}.cls-2{isolation:isolate;}.cls-3,.cls-4{fill:#de703b;}.cls-5{fill:#8fb56c;}.cls-4{mix-blend-mode:multiply;}</style></defs><g class="cls-2"><g id="Layer_2"><g id="Layer_16"><g><path class="cls-3" d="M168.85,134.98c-.84,7.94-3.21,15.61-6.66,22.83-1.53,3.22-3.29,6.35-5.21,9.36-1.73,2.72-3.61,5.34-5.59,7.85-4.21,5.35-8.9,10.27-13.91,14.88-2.07,1.91-4.2,3.77-6.37,5.58-3.94,3.3-8.01,6.45-12.13,9.5-1.45,1.08-2.91,2.14-4.38,3.19-1.65,1.2-3.31,2.37-4.98,3.52-8.07,5.61-16.37,10.88-24.88,15.78-2.01,1.17-4.04,2.31-6.07,3.44-10.73,5.91-21.77,11.26-33.09,15.95-6.51,2.7-13.23,5.21-20.25,5.76-3.4,.26-6.89,.01-10.19-.86-3.37-.88-6.53-2.4-9.15-4.68l-.03,.02c-.05-.06-.1-.12-.16-.18s-.12-.1-.18-.16l.03-.03C1.14,241.55-.43,234.26,.1,227.39c.55-7.02,3.06-13.74,5.76-20.25,1.25-3,2.54-5.98,3.87-8.93,1.17-2.6,2.38-5.19,3.63-7.76,2.61-5.45,5.39-10.83,8.31-16.13,.94-1.72,1.9-3.43,2.88-5.13,5.12-8.96,10.65-17.69,16.54-26.17,1.08-1.56,2.17-3.1,3.27-4.64,1.12-1.56,2.24-3.1,3.38-4.64,1.78-2.39,3.59-4.77,5.45-7.12,.61-.79,1.24-1.58,1.88-2.36,4.45-5.51,9.16-10.79,14.27-15.66,1.48-1.41,3-2.79,4.55-4.13,1.24-1.07,2.51-2.12,3.81-3.14,11.59-9.13,25.37-15.9,40.04-17.46,13.44-1.43,27.63,1.89,38.08,10.33l.26-.27v.18c.42,.43,.81,.88,1.2,1.33,.45,.39,.9,.78,1.33,1.2h.18l-.27,.26c.19,.24,.38,.48,.56,.72,8.03,10.38,11.17,24.23,9.77,37.36Z"/><g><path class="cls-5" d="M204.48,43.6c5.4-4.59-14.74,25.79-14.74,25.79,0,0,13.13-3.38,24.57,1.34,1.03,.43,9.43,4.33,10.53,4.43,1.85,.16,2.41-.15,3.45-1.66,9.07-13.19,11.47-33.98,9.34-51.61-.19-1.54-.68-5.86-2.26-6.59-2.1-.97-4.78-.78-7.21-.64-13.34,.77-26.79,2.46-38.95,7.67-7.07,3.03-13.28,7.52-18.66,12.91,.81,1.54,2.75,4.16,3.12,6.1,1.13,5.94,1.07,10.68-.1,16.75-1.87,9.7-13.22,28.26-11.56,26.56,12.29-12.58,26.71-27.65,42.46-41.04Z"/><path class="cls-5" d="M228.2,81.66c-9.2-7.64-26.88-13.18-36.25-9.64-10.87,4.1-13.6,6.54-22.92,18.37-4.33,5.49,16.17,6.66,26.08,9,4,.95-10.06,1.44-13.87,1.87-3.81,.43-9.41,.05-13.14,4.01-.02,.02-.02,.03-.03,.06-1.3,4.35,4.72,8.59,8.24,11.64,3.93,3.42,7.59,5.78,12.33,7.87,6.42,2.82,12.88,4.26,19.71,3.37,16.83-2.2,22.47-6.89,41.21-19.38,7.32-4.88,2.75-7.14-21.36-27.16Z"/><path class="cls-5" d="M153.38,18.83C128.49-.21,125.27-4.17,122.14,4.06c-8.01,21.05-11.32,27.59-9.71,44.49,.65,6.86,3.5,12.84,7.67,18.47,3.09,4.16,6.21,7.21,10.42,10.27,3.76,2.74,9.23,7.67,13.19,5.43,.02-.01,.04-.02,.05-.04,3.03-4.51,1.42-9.9,.98-13.7-.43-3.81-3.08-17.63-1.27-13.94,4.49,9.14,10.19,28.86,14.58,23.42,9.46-11.73,11.22-14.93,12.8-26.44,1.36-9.92-7.98-25.93-17.48-33.19Z"/></g><path class="cls-4" d="M107.15,192.75c3.42,5.34,4.56,10.3,7.45,15.42-1.65,1.2-3.31,2.37-4.98,3.52-4.31-12.82-11.37-24.71-20.58-34.62,7.44-.63,14.08,9.4,18.11,15.68Z"/><path class="cls-4" d="M55.07,124.26c5.45,1.91,14.15,6.12,17.32,8.15,24.57,15.7,49.81,33.02,65.09,57.49-2.07,1.91-4.2,3.77-6.37,5.58-7.01-13.11-25.18-30.71-35.97-40.16-11.09-9.71-24.41-17.41-36.73-25.52-.83-.56-3.26-1.84-5.22-3.18"/><path class="cls-4" d="M162.19,157.81c-1.53,3.22-3.29,6.35-5.21,9.36-3.18-9.94-9.73-22.71-15-28.85-6.56-7.64-23.27-21.28-23.12-22.56,.24-2.09,16.5,8.98,20.4,12.38,3.71,3.25,19.03,17.1,22.93,29.67Z"/><path class="cls-4" d="M33.34,213.46c.47,.83,.93,1.84,.5,2.68-.95,1.85-3.67,.08-4.87-1.61-4.9-6.94-11.6-12.61-19.24-16.32,1.17-2.6,2.38-5.19,3.63-7.76,2.04,2.79,4.8,4.95,7.36,7.27,4.99,4.54,9.27,9.88,12.62,15.74Z"/><path class="cls-4" d="M54.16,147.31c-4.05-2.15-8.54-3.78-13.07-4.29,1.08-1.56,2.17-3.1,3.27-4.64,3.17,2.37,6.81,3.13,10.91,4.56,6.52,2.27,20.87,16.9,20.45,18.67,0,.02-.01,.04-.02,.05-.16,.37-1.19-.02-3.4-1.51-6.63-4.46-11.09-9.08-18.14-12.84Z"/><path class="cls-4" d="M84.74,227.47c-2.01,1.17-4.04,2.31-6.07,3.44-.32-.54-.61-1.1-.89-1.65-10.03-19.59-24.91-36.66-42.93-49.29-3.76-2.63-7.85-5.15-12.42-5.6-.25-.03-.5-.04-.76-.05,.94-1.72,1.9-3.43,2.88-5.13,2.69,2.54,6.11,4.55,9.29,6.5,20.87,12.74,38.52,30.7,50.9,51.78Z"/><path class="cls-4" d="M108.59,129c-2.38-.54-8.66-5.62-10.6-7.09-8.16-6.2-17.29-11.64-27.43-13.15-.4-.06-.81-.11-1.22-.16,1.48-1.41,3-2.79,4.55-4.13,10.67,1.49,20.75,5.13,28.12,13.1,1.93,2.09,11.88,12.64,6.58,11.43Z"/><path class="cls-1" d="M77.68,163.14s-3.41-2.51-3.41-2.68l3.41,2.68Z"/><path class="cls-4" d="M159.08,97.62c-7.53-3.57-16.32-3.94-24.5-2.28-8.4,1.7-20.26,3.9-27.75,8.05-38.42,21.24-69.79,56.81-88.31,96.61-4.99,10.73-6.53,15.61-8.82,25.07-2.17,8.96-.25,19.62,5.44,26.69-3.37-.88-6.53-2.4-9.15-4.68l-.03,.02c-.05-.06-.1-.12-.16-.18s-.12-.1-.18-.16l.03-.03C1.14,241.55-.43,234.26,.1,227.39c.55-7.02,3.06-13.74,5.76-20.25,10.83-26.08,25.07-50.71,41.88-73.4,8.79-11.86,18.36-23.28,29.96-32.41,11.59-9.13,25.37-15.9,40.04-17.46,13.44-1.43,27.63,1.89,38.08,10.33l.26-.27v.18c.42,.43,.81,.88,1.2,1.33,.45,.39,.9,.78,1.33,1.2h.18l-.27,.26c.19,.24,.38,.48,.56,.72Z"/></g></g></g></g></svg>