<?xml version="1.0" encoding="UTF-8"?><svg xmlns="http://www.w3.org/2000/svg" viewBox="0 0 215.38 147.13"><defs><style>.cls-1{opacity:.68;}.cls-1,.cls-2,.cls-3{fill:#e6903b;}.cls-1,.cls-3{mix-blend-mode:multiply;}.cls-4{isolation:isolate;}.cls-3{opacity:.59;}</style></defs><g class="cls-4"><g id="Layer_2"><g id="Layer_38"><path class="cls-2" d="M213.57,73.76c-2.24,24.05-6.15,55.16-9.33,59.28-6.01,7.82-17.15,7.82-26.99,8.31-17.81,.9-35.49,1.6-53.21,2.24-18.28,.66-36.55,1.2-54.95,1.74-15.78,.47-31.66,.92-47.67,1.41-3.93,.12-7.87,.26-11.82,.38-2.19,.07-4.66-6.03-6.52-13.38C1.28,126.7,.06,118.48,.17,113.47c.24-10.25-1.22-19.08,1.58-32.29,.26-1.18,.71-2.31,1.32-3.37,4.5-7.96,18.04-12.93,25.86-17.41C64.4,40.22,95.38,17.42,134.73,1c12.93-5.37,45.1,11.92,64.68,27.18,9.04,7.07,15.38,13.68,15.9,17.43v.05c.31,2.45-.45,14.06-1.74,28.1Z"/><path class="cls-3" d="M213.57,73.76c-2.24,24.05-6.15,55.16-9.33,59.28-6.01,7.82-17.15,7.82-26.99,8.31-17.81,.9-35.49,1.6-53.21,2.24-18.28,.66-36.55,1.2-54.95,1.74-15.78,.47-31.66,.92-47.67,1.41-3.93,.12-7.87,.26-11.82,.38-2.19,.07-4.66-6.03-6.52-13.38C1.28,126.7,.06,118.48,.17,113.47c.24-10.25-1.22-19.08,1.58-32.29,.26-1.18,.71-2.31,1.32-3.37-.16,2.9,1.46,5.7,4.29,6.81,3.53,1.39,7.49,.87,11.23,.33,3.06-.42,6.15-.87,9.23-1.34,11.12-1.67,22.35-3.51,33.63-5.49,38.77-6.78,78.27-15.24,116.87-24,12.44-2.8,24.78-5.65,36.98-8.5v.05c.31,2.45-.45,14.06-1.74,28.1Z"/><path class="cls-1" d="M21.42,146.75c-3.93,.12-7.87,.26-11.82,.38-2.19,.07-4.66-6.03-6.52-13.38,1.22-.38,2.54-.54,3.82-.47,3.67,.21,7.14,2.07,9.77,4.64,2.45,2.36,4.29,5.46,4.76,8.83Z"/><path class="cls-1" d="M213.57,73.76c-8.01,2.59-17.19,1.34-24.14-3.44-5.51-3.79-9.47-9.7-11.09-16.2-.59-2.36-.87-4.8-.8-7.23,.14-4,2.94-10.41,8.41-14.06,4-2.66,8.69-4,13.47-4.64,9.04,7.07,15.38,13.68,15.9,17.43v.05c.31,2.45-.45,14.06-1.74,28.1Z"/><path class="cls-1" d="M124.04,143.59c-18.28,.66-36.55,1.2-54.95,1.74,.47-5.51,3.01-10.88,7.04-14.72,6.12-5.84,15.26-8.1,23.6-6.55,8.31,1.55,15.78,6.69,20.89,13.45,1.39,1.84,2.64,3.91,3.42,6.08Z"/><path class="cls-1" d="M101.33,29.43c-4.7,1.56-8.25,6.1-8.64,11.04-.39,4.93,2.41,9.97,6.81,12.25,3.6,1.86,7.87,1.9,11.89,1.44,4.23-.48,8.6-1.56,11.79-4.39,3.95-3.5,5.4-9.47,3.72-14.48-1.67-5.01-6.26-8.85-11.44-9.87-5.18-1.02-9.65,2.52-14.13,4.01Z"/><path class="cls-1" d="M33.2,72.07c-3.81,1.89-5.57,6.52-5.44,10.77,.23,7.92,6.44,15.31,14.23,16.79,7.79,1.48,16.33-3.18,19.21-10.56s-.34-16.66-7.22-20.6c-6.88-3.93-14.55,.51-20.77,3.6Z"/><path class="cls-1" d="M141.4,9.84c-3.55,3.67-4.37,9.69-1.94,14.18,2.43,4.49,7.93,7.08,12.94,6.11,2.76-.54,5.37-2.12,6.85-4.51,1.48-2.39,1.74-5.43,1.01-8.15s-2.37-5.13-4.39-7.09c-2.07-2-4.67-3.6-7.54-3.82-2.87-.23-5.34,1.63-6.94,3.28Z"/><path class="cls-1" d="M175.06,92.74c-5.2,1.92-9.59,5.94-11.97,10.95s-2.71,10.95-.91,16.2c1.27,3.69,3.68,7.13,7.16,8.88,3.43,1.73,7.63,1.65,11.19,.2,3.56-1.46,6.51-4.19,8.65-7.38,3.95-5.91,5.15-13.87,2.05-20.27-3.1-6.39-10.91-10.52-16.16-8.58Z"/><path class="cls-1" d="M117.29,85.27c-1.31,3.06-2.64,6.39-1.86,9.62,.95,3.93,5.27,6.65,9.26,5.99,3.99-.66,7.17-4.44,7.31-8.48,.15-4.04-2.61-7.96-6.39-9.39-2.85-1.07-6.97-.9-8.32,2.26Z"/></g></g></g></svg>