<?xml version="1.0" encoding="UTF-8"?><svg xmlns="http://www.w3.org/2000/svg" viewBox="0 0 138.44 259.1"><defs><style>.cls-1,.cls-2,.cls-3,.cls-4{mix-blend-mode:multiply;}.cls-1,.cls-5{fill:#e44b45;}.cls-6{isolation:isolate;}.cls-2{opacity:.79;}.cls-2,.cls-3,.cls-7{fill:#e6903b;}.cls-3{opacity:.47;}.cls-4{fill:#8a3532;}.cls-8{fill:#e6bb3c;}</style></defs><g class="cls-6"><g id="Layer_2"><g id="Layer_68"><path class="cls-7" d="M135.58,214.67c-1.75,8.97-4.62,18.18-11.11,24.61-8.24,8.2-20.54,10.34-32.03,12.08-9.12,1.38-18.29,2.75-27.5,3.04-2.78,.09-5.56,.09-8.34-.06-11.99-.61-24.15-3.81-33.7-11.09C6.79,230.95,.8,209.3,.09,189.04c-.86-23.92,4.6-48.76,19.23-67.73,13.19-17.09,35.71-30.25,57.28-29.52,2.37,.09,4.72,.33,7.04,.76,18.42,3.38,37.58,16.44,46.75,35,5.83,11.76,6.4,25.03,7.38,38.12,1.21,16.35,.94,32.92-2.2,49.01Z"/><path class="cls-3" d="M12.65,171.83c-1.7,34.67,20.36,69.14,52.29,82.56-2.78,.09-5.56,.09-8.34-.06-11.99-.61-24.15-3.81-33.7-11.09C6.79,230.95,.8,209.3,.09,189.04c-.86-23.92,4.6-48.76,19.23-67.73,13.19-17.09,35.71-30.25,57.28-29.52-.01,.63-.03,1.27-.07,1.92-34.91,8.88-62.12,42.14-63.88,78.12Z"/><path class="cls-4" d="M93.57,153.76c-.5-5.37,3.14-11.03,7.98-12.41,1.21-.34,2.51-.44,3.65,.02,1.14,.46,2.1,1.56,2.22,2.91s-.77,2.83-2,3.03c-1.37,.23-2.51-1.02-3.87-1.25-1.24-.2-2.55,.52-3.39,1.6s-1.3,2.45-1.58,3.81c-.14,.68-.25,1.39-.56,2.01-.31,.62-.89,1.14-1.53,1.12s-1.18-.79-.92-.85Z"/><path class="cls-4" d="M54.67,155.47c.48-5.6-3.99-11.04-9.8-11.93-1.45-.22-3-.18-4.36,.43-1.35,.6-2.47,1.85-2.58,3.25s.98,2.84,2.46,2.91c1.64,.08,2.98-1.33,4.58-1.71,1.48-.35,3.05,.26,4.08,1.27,1.03,1.02,1.6,2.38,1.97,3.76,.18,.69,.33,1.41,.71,2.01,.39,.6,1.09,1.08,1.84,.99s1.39-.94,1.08-.98Z"/><path class="cls-5" d="M102.4,69.36c-1,3.04-3.08,5.56-5.02,8.1-14.43,18.99-22.68,42.57-23.32,66.41-.06,1.82-.07,3.65-.03,5.47,0,.19,.01,.36,.01,.54-.03-.23-.06-.46-.09-.67-2.3-17.02-2.72-24.59-3.18-32.15-.09-5.16-.29-8.95-.5-12.75,2.15-17.39-6.26-33.32-9.69-49.68-3.69-17.61-1.55-35.85,.67-53.72,.04-.3,.07-.61,.11-.91,3.45,6.36,15.34,4.12,17.85,10.91,1.05,2.88-.27,6.04-.26,9.12,.01,4.58,2.92,8.54,5.45,12.36,2.51,3.82,4.82,8.43,3.49,12.8-.8,2.61-2.88,5.05-2.35,7.74,.56,2.92,3.86,4.38,6.8,4.89,2.94,.5,6.19,.63,8.4,2.64,2.35,2.15,2.67,5.87,1.65,8.9Z"/><path class="cls-1" d="M74.06,143.86c-.06,1.82-.07,3.65-.03,5.47-.03-.04-.06-.09-.07-.13-2.3-17.02-2.72-24.59-3.18-32.15-.09-5.16-.29-8.95-.5-12.75,2.15-17.39-6.26-33.32-9.69-49.68-3.69-17.61-1.55-35.85,.67-53.72,2.48,4.52,4.32,9.48,4.11,14.58-.21,4.98-2.32,9.69-2.89,14.64-1.33,11.65,5.93,22.31,9.62,33.45,8.45,25.53-1.98,53.92,1.97,80.28Z"/><path class="cls-8" d="M118.74,206.92c-1.91,1.13-4.18,1.37-6.34,1.82-10.48,2.18-19.62,9.94-23.48,19.9-2.89,7.44-2.94,15.64-4.23,23.51-.43,2.64-1.31,5.63-3.78,6.64-2.17,.88-4.75-.24-6.26-2.05-1.5-1.8-2.2-4.12-2.89-6.36-2.34-7.48-5.2-14.93-9.81-21.28-4.59-6.36-11.11-11.6-18.75-13.42-3.61-.84-8.21-1.63-9.1-5.22-.47-1.97,.53-3.98,2.04-5.37,.26-.24,.54-.47,.83-.67,1.94-1.34,4.29-1.95,6.52-2.78,8.6-3.24,15.57-10.52,18.45-19.25,1.53-4.62,1.95-9.55,3.65-14.11,1.7-4.55,5.16-8.94,9.97-9.69,3.56,9.67,7.6,18.43,13.7,25.75,6.1,7.3,14.64,13.07,24.12,13.76,2.84,.2,6.39,.4,7.7,2.74,.1,.17,.19,.36,.26,.56,.76,2.08-.68,4.42-2.58,5.53Z"/><path class="cls-2" d="M118.74,206.92c-1.91,1.13-4.18,1.37-6.34,1.82-10.48,2.18-19.62,9.94-23.48,19.9-2.89,7.44-2.94,15.64-4.23,23.51-.43,2.64-1.31,5.63-3.78,6.64-2.17,.88-4.75-.24-6.26-2.05-1.5-1.8-2.2-4.12-2.89-6.36-2.34-7.48-5.2-14.93-9.81-21.28-4.59-6.36-11.11-11.6-18.75-13.42-3.61-.84-8.21-1.63-9.1-5.22-.47-1.97,.53-3.98,2.04-5.37,7.24-1.24,14.9-.23,21.5,3.01,9.22,4.51,16.27,13.27,18.22,23.49,6.9-17.91,25.42-30.68,44.61-30.77h.6c.1,.17,.19,.36,.26,.56,.76,2.08-.68,4.42-2.58,5.53Z"/></g></g></g></svg>