<?xml version="1.0" encoding="UTF-8"?><svg id="Layer_2" xmlns="http://www.w3.org/2000/svg" viewBox="0 0 255.57 176.46"><defs><style>.cls-1{fill:#d7661c;}.cls-2{fill:#fff;}.cls-3{fill:#fc8077;}.cls-4{fill:#1c4071;}</style></defs><g id="Layer_59_copy"><path class="cls-2" d="M62.58,85.82c-7.81,6.34-18.1,8.81-28.13,9.67-6.26,.55-12.66,.52-18.75-1.06-6.04-1.57-11.8-4.78-15.6-9.72-.04-.04-.07-.08-.1-.12,7.54-3.07,12.06-10.63,16.29-17.58,4.23-6.95,9.41-14.29,17.29-16.31,12.32-3.17,24.21,8.14,36.9,7.37,1.13,2.55,1.7,5.14,1.81,7.69,.33,7.85-3.8,15.27-9.71,20.06Z"/><path class="cls-2" d="M255.43,41.88c-.56,7.21-2.89,14.28-6.88,20.3-5.79,8.74-15.07,15.15-25.35,17.18-8.68,1.72-17.65,.39-26.41-.95-6.45-.98-13.23-2.1-18.35-6.14-2.12-1.68-3.46-3.83-4.11-6.33h0c-.92-3.53-.47-7.72,1.02-12.13,3.87-11.44,16.21-19.38,28.23-18.16,9.22,.93,17.47,6.54,26.68,7.52,9.44,1.01,19.27-3.35,24.86-11.01,.47,3.22,.57,6.48,.31,9.72Z"/><path class="cls-3" d="M255.43,41.88c-.56,7.21-2.89,14.28-6.88,20.3-5.79,8.74-15.07,15.15-25.35,17.18-8.68,1.72-17.65,.39-26.41-.95-6.45-.98-13.23-2.1-18.35-6.14-2.12-1.68-3.46-3.83-4.11-6.33h0c1.07-6.01,6.18-10.89,11.99-12.94,6.2-2.18,13.03-1.67,19.47-.35,6.44,1.31,12.72,3.39,19.23,4.27s13.48,.46,19.12-2.9c4.79-2.85,8.14-7.5,11.29-12.14Z"/><path class="cls-3" d="M62.58,85.82c-7.81,6.34-18.1,8.81-28.13,9.67-6.26,.55-12.66,.52-18.75-1.06-6.04-1.57-11.8-4.78-15.6-9.72,5.78,1.25,12.1-.02,16.87-3.53,4.62-3.39,7.67-8.56,12.11-12.19,7.44-6.09,17.73-7.14,27.35-7.16,5.43,0,11.26,.36,15.55,3.68,.11,.08,.21,.16,.31,.25,.33,7.85-3.8,15.27-9.71,20.06Z"/><path class="cls-2" d="M175.77,130.72c3.68,7.78,2.25,17.38-2.43,24.61-4.68,7.22-12.22,12.25-20.29,15.26-8.06,3.01-16.69,4.17-25.26,4.99-12.73,1.21-25.84,1.7-38.08-2.01-6.87-2.08-13.86-6.03-16.4-12.74-1.91-5.07-.92-10.45,.45-15.83h0c.64-2.52,1.36-5.03,1.91-7.5,.73-3.32,1.13-6.64,1.28-9.97,.94-20.26-7.49-40.73-8.71-61.36-.57-9.75,.69-20.12,6.54-27.95,.39-.53,.81-1.04,1.23-1.53,7.51-8.73,19.55-12.1,31.17-14.4,.16-.23,.33-.49,.46-.79,.71-1.61,0-3.7-1.55-4.54-3.09-1.67-7.68,1.53-10.15-.97-2.13-2.17,.57-6.14,3.61-6.23,3.03-.08,5.6,2.11,7.83,4.16-.4-2.08-.79-4.28-.05-6.27,.73-1.98,3.04-3.55,4.98-2.7,1.49,.65,2.21,2.41,3.62,3.22,2.92,1.69,6.18-1.48,8.22-4.18,2.04-2.7,5.92-5.44,8.37-3.1,1.99,1.9,.71,5.27-.98,7.45-1.69,2.17-3.83,4.61-3.19,7.29,.89,3.75,6.02,4.15,9.85,3.69,6.09-.73,12.25-1.5,18.33-.72,2.12,.27,4.24,.76,6.26,1.48,3.79,1.33,7.25,3.5,9.74,6.62,4.12,5.16,5.06,12.12,5.39,18.72,1,20.44-2.44,40.82-6.13,60.95-1.02,5.54-2.03,11.41-.03,16.69h0c.07,.19,.14,.35,.22,.53,1.03,2.47,2.64,4.69,3.79,7.13Z"/><g><path class="cls-1" d="M171.79,106.37c3.69-20.13,7.13-40.51,6.13-60.95-.33-6.6-1.27-13.56-5.39-18.72-2.49-3.12-5.95-5.29-9.74-6.62-.53,5.81-2.47,11.5-5.32,16.63-3.96,7.1-9.57,13.17-15.68,18.53-4.95,4.34-10.35,8.35-14.05,13.8-3.71,5.44-5.41,12.86-2.24,18.63,2.89,5.29,8.98,7.88,14.74,9.66,5.76,1.79,11.94,3.31,16.24,7.53,4.1,4.02,5.85,9.9,9.63,14.22,1.66,1.9,3.66,3.4,5.87,4.51-.08-.18-.15-.35-.22-.53-2-5.28-.99-11.15,.03-16.69Z"/><path class="cls-1" d="M83.4,52.92c-4.35-4.24-6.98-10.17-7.39-16.23-.42,.49-.84,1-1.23,1.53-5.85,7.83-7.11,18.2-6.54,27.95,1.22,20.63,9.65,41.1,8.71,61.36,1.02-2.93,1.63-6.05,2.99-8.85,3.69-7.63,12.08-11.58,18.15-17.49,4.46-4.34,7.76-9.98,8.77-16.13,1-6.14-.42-12.75-4.32-17.6-5.04-6.27-13.38-8.93-19.14-14.54Z"/></g><path class="cls-1" d="M155.43,136.19c1.07,1.06,1.18,2.82,.6,4.21s-1.73,2.45-2.96,3.33c-.67,.48-1.37,.92-1.91,1.55s-.89,1.47-.68,2.27c.34,1.31,1.92,1.84,3.27,1.87,3.43,.08,6.93-1.87,8.31-5.02s.26-7.29-2.71-9.01c-.69-.4-1.47-.67-2.26-.6s-1.57,.55-1.66,1.39Z"/><path class="cls-1" d="M92.39,139.19c-1.07,1.06-1.18,2.82-.6,4.21s1.73,2.45,2.96,3.33c.67,.48,1.37,.92,1.91,1.55s.89,1.47,.68,2.27c-.34,1.31-1.92,1.84-3.27,1.87-3.43,.08-6.93-1.87-8.31-5.02s-.26-7.29,2.71-9.01c.69-.4,1.47-.67,2.26-.6s1.57,.55,1.66,1.39Z"/><g><path class="cls-4" d="M96,74.86c-1.8,.24-2.77,2.4-3.35,4.11-.58,1.71-.66,3.56-.57,5.36,.07,1.51,.28,3.07,1.13,4.33s2.51,2.07,3.93,1.53c1.29-.5,1.97-1.9,2.34-3.22,.76-2.71,.77-5.62,.02-8.33-.44-1.6-1.41-4.05-3.49-3.78Z"/><path class="cls-4" d="M146.64,74.94c-.67-1.52-1.98-3.81-4-3.24-1.75,.49-2.39,2.77-2.73,4.55-.33,1.78-.14,3.61,.2,5.39,.29,1.48,.71,3,1.73,4.12s2.78,1.69,4.1,.95c1.21-.67,1.68-2.16,1.86-3.52,.37-2.79-.04-5.67-1.17-8.25Z"/></g></g></svg>