<?xml version="1.0" encoding="UTF-8"?><svg id="Layer_2" xmlns="http://www.w3.org/2000/svg" viewBox="0 0 208.47 187.06"><defs><style>.cls-1{fill:#fff;}.cls-2{fill:#e6903b;}</style></defs><g id="Layer_17_copy"><path class="cls-1" d="M14.17,122.12c8.76,18.46,18.41,37.23,34.04,50.39,15.63,13.16,38.78,19.46,56.91,10.04,12.74-6.62,20.87-19.53,32.14-28.43,11.49-9.07,25.79-13.64,38.95-20.04,13.16-6.41,26.17-15.82,30.62-29.77,5.09-15.97-2.46-33.21-11.95-47.03C177.25,31.62,151.43,10.81,121.27,3.09S56.7,2.07,34.19,23.58c-10.46,10-18.02,22.61-25.02,35.28C4.93,66.55,.75,74.62,.09,83.39c-1.14,15.18,9.2,28.43,14.09,38.74Z"/><path class="cls-2" d="M80.2,55.95c-12.15,5.17-20.21,18.63-19.05,31.78s11.45,24.99,24.32,27.96,27.31-3.15,34.11-14.46c6.81-11.31,5.46-26.94-3.18-36.92-8.65-9.98-23.94-13.58-36.19-8.36Z"/><path class="cls-1" d="M95.11,57.86c-8.58,.65-16.95,3.99-22.51,9.84s-8.01,14.3-5.54,21.9c.22,.68,.66,1.49,1.44,1.52,.99,.03,1.32-1.16,1.38-2.06,.41-6.42,3.21-12.58,7.56-17.55,4.35-4.97,10.2-8.76,16.65-11.24,.69-.27,1.45-.56,1.8-1.16s.06-1.31-.77-1.25Z"/></g></svg>