<?xml version="1.0" encoding="UTF-8"?><svg xmlns="http://www.w3.org/2000/svg" viewBox="0 0 91.24 96.92"><defs><style>.cls-1{mix-blend-mode:multiply;opacity:.95;}.cls-2{isolation:isolate;}.cls-3{fill:#8fb56c;}</style></defs><g class="cls-2"><g id="Layer_2"><g id="Layer_1-2"><g class="cls-1"><path class="cls-3" d="M19.57,81.26c2.28-14.32,4.28-30.97,8.52-47.48,1.45-5.66,2.47,24.4,2.47,24.4,0,0,7.32-8.5,17.42-10.74,.91-.2,8.54-1.54,9.34-2,1.34-.77,1.57-1.25,1.55-2.76-.22-13.21-8.69-28.38-18.71-39.28-.88-.95-3.31-3.64-4.75-3.38-1.91,.34-3.64,1.74-5.23,2.99C21.46,9.85,13.1,17.36,7.33,26.65,1.56,35.93-.39,46.9,.06,57.79c.46,11.28,18.16,31.98,19.51,23.48Z"/><path class="cls-3" d="M62.79,48.24c-9.99-.8-24.76,3.84-29.43,10.67-5.42,7.92-6.1,10.86-6.72,23.27-.29,5.76,14.27-3.17,22.17-6.28,3.19-1.26-6.17,5.74-8.56,7.83-2.39,2.09-6.4,4.49-7.02,8.94,0,.02,0,.03,.01,.05,1.23,3.55,7.4,3.56,11.28,3.96,4.34,.45,7.99,.31,12.24-.53,5.75-1.14,10.86-3.23,15.09-7.07,10.42-9.46,11.99-15.3,18.7-32.62,2.62-6.77-1.59-6.12-27.78-8.21Z"/></g></g></g></g></svg>