<?xml version="1.0" encoding="UTF-8"?><svg xmlns="http://www.w3.org/2000/svg" viewBox="0 0 118.72 50.92"><defs><style>.b{isolation:isolate;}.c{fill:#e6903b;}.d{fill:#9c3c0c;}.e{fill:#de703b;}.f{fill:#8fb56c;}.g{fill:#e44b45;}.h{mix-blend-mode:multiply;}.i{fill:#589c83;}</style></defs><g class="b"><g id="a"><path class="i" d="M22.97,36.4c-.78-.75-1.58-1.46-1.79-2.45-.3-1.39,.67-2.68,1.36-3.97,1.21-2.24,1.22-4.91,.04-7.15s-3.54-4.03-6.31-4.78c-2.43-.66-5.08-.53-7.54,0-2.29,.5-4.7,1.19-6.12,2.78-1.56,1.75-2.02,4.27-2.23,6.46-.61,6.31-.71,12.12,1.56,18.15,.74,1.98,3.51,3.99,5.94,4.66,2.43,.68,5.06,.65,7.58,.29,2.73-.39,5.5-1.23,7.38-2.95,1.58-1.46,2.52-3.68,2.47-5.66-.05-1.97-.83-3.93-2.33-5.38Zm-13.67-8.12c-.15-1.05-.03-2.14,.34-3.15,.38-1.04,2.27-1.37,3.51-.99,1.24,.38,2.06,1.57,1.83,2.67-.24,1.13-1.4,1.97-2.6,2.51-.41,.18-.83,.35-1.29,.39-.46,.04-.95-.05-1.28-.32-.34-.28-.45-.7-.51-1.1Zm6.26,13.34c-.37,.73-.88,2.06-2.16,2.34-.63,.13-1.83,.32-2.36,0-.34-.2-.5-.55-.61-.89-.46-1.32-.76-3.07-.02-4.29,.46-.76,1.44-1.06,2.26-1.12,.9-.07,1.31,.19,1.96,.54,.59,.32,.96,.88,1.07,1.46,.11,.58,.08,1.51-.15,1.96Z"/><path class="e" d="M47.74,24.11c-1.32,.37-1.16,.78-2.61,1.6-1,.56-.68-.7-.51-2.36,.21-2.18-4.92-.9-7.22,.07-5.43,2.3-9.16,6.96-9.72,12.95-.68,7.27,.18,8.21,2.04,10.69,2.88,3.82,10.54,6.1,18.26-.13,5.34-4.3,4.03-12.52,2.53-19.05-.22-.98-1.68-4.08-2.77-3.77Z"/><path class="f" d="M45.38,20.12c.62-3.55,1.16-7.67,2.3-11.76,.39-1.4,.67,6.04,.67,6.04,0,0,1.98-2.11,4.71-2.66,.25-.05,2.31-.38,2.52-.5,.36-.19,.43-.31,.42-.68-.06-3.27-2.35-7.03-5.06-9.73-.24-.24-.9-.9-1.28-.84-.52,.08-.98,.43-1.41,.74-2.36,1.7-4.62,3.56-6.18,5.86-1.56,2.3-2.09,5.02-1.97,7.71,.13,2.79,4.91,7.92,5.27,5.81Z"/><path class="c" d="M77.38,33.69c2.16-.93,3.9-2.92,4.54-5.2,.64-2.28,.17-4.81-1.25-6.76-1.57-2.15-4.21-3.51-6.97-3.91s-5.61,.13-8.16,1.2c-1.63,.68-3.19,1.63-4.2,3.01-1.38,1.9-1.51,4.33-1.64,6.63-.35,6.3-1.04,12.64-.07,18.88,.19,1.25,1.63,2.29,3.07,2.81,1.44,.52,3.08,.4,4.49-.18,1.07-.44,2.16-1.02,2.73-1.97,.96-1.58,1.09-3.51,1.01-5.31-.05-1.03-.35-2.1-.03-3.09,0-.01,0-.02,0-.04,2.22,3.69,5.15,6.72,7.83,9.85,.62,.72,1.66,1,2.67,.86,1.18-.15,2.25-.62,3.16-1.33,.56-.43,.9-1.23,1.12-1.72,1.14-2.63-5.75-9.85-8.35-13.73Zm-5.62-4.53c-.86,.77-2.09,1.13-3.28,1.02-.43-.04-.87-.15-1.16-.45-.29-.3-.34-.73-.36-1.14-.06-1.14,.08-2.29,.41-3.39,.27-.92,1.84-1.43,3.01-1.25,1.17,.18,2.15,1.1,2.41,2.18s-.17,2.26-1.03,3.03Z"/><path class="f" d="M57.06,11.95c-2.7-.2-6.69,.95-7.96,2.64-1.47,1.96-1.65,2.69-1.82,5.76-.08,1.43,3.86-.78,5.99-1.56,.86-.31-1.67,1.42-2.31,1.94-.65,.52-1.73,1.11-1.9,2.21,0,0,0,0,0,.01,.33,.88,2,.88,3.05,.98,1.17,.11,2.16,.08,3.31-.13,1.55-.28,2.94-.8,4.08-1.75,2.82-2.34,3.24-3.79,5.06-8.08,.71-1.68-.43-1.52-7.51-2.03Z"/><path class="g" d="M88.3,21.06c-.28,8.81-.05,17.92,.37,26.51,.04,.83,1.02,1.57,1.61,2.2,.8,.85,2.18,.96,3.41,.98,1.47,.02,3.26-.09,4.21-1.12,.77-.84,.7-2.03,.72-3.13,.08-4.61,.18-10.2,.07-13.79-.08-2.52,7.51,11.85,8.83,13.59,2.12,2.78,2.03,3.05,4.36,3.97s4.06,1.02,5.6-.82c1.29-1.54,1.29-3.64,1.23-5.58l-.57-19.97c-.03-1.12-.07-2.24-.38-3.32s-.42-1.39-1.42-2.03c-1.97-1.24-6.19-.97-7.73,.71s-1.04,4-.99,6.19,1.29,9.18-.01,6.42c-1.44-3.03-3.57-5.63-5.55-8.39-1.64-2.29-3.52-4.74-6.39-5.5-2.92-.78-7.28,.5-7.36,3.08Z"/><g class="h"><ellipse class="d" cx="42.72" cy="39.15" rx="1.43" ry="1.7"/><ellipse class="d" cx="35.83" cy="39.07" rx="1.43" ry="1.7"/><path class="d" d="M41.83,43.28c-.2,0-.57,.34-.62,.48-.13,.33-.35,.67-.5,.99s-.43,.63-.85,.79c-.62,.24-1.44,.08-1.93-.28-.49-.36-.69-.87-.72-1.37-.01-.23-.18-.39-.46-.5-.24-.1-.41-.12-.57,.03-.17,.16-.21,.36-.22,.56-.03,.66,.22,1.35,.82,1.86,.6,.51,1.73,.92,2.65,.8,.94-.12,1.45-.37,2.05-.86s1.11-1.37,.99-2.01c-.05-.27-.26-.47-.65-.49Z"/></g></g></g></svg>