<?xml version="1.0" encoding="UTF-8"?><svg xmlns="http://www.w3.org/2000/svg" xmlns:xlink="http://www.w3.org/1999/xlink" viewBox="0 0 153.01 228.77"><defs><style>.cls-1{isolation:isolate;}.cls-2{fill:#1b2a45;font-family:AveriaLibre-Regular, 'Averia Libre';font-size:25.92px;}.cls-3{clip-path:url(#clippath-9);}.cls-4{fill:none;}.cls-5{mix-blend-mode:multiply;}.cls-5,.cls-6{fill:#536885;}.cls-7{clip-path:url(#clippath-8);}.cls-8{fill:#fffefc;}</style><clipPath id="clippath-8"><path class="cls-4" d="M20.33,120.42c12.45,10.74,24.9,21.48,37.39,31.87,27.27,2.38,54.77,2.04,82.99-.94l-4.2,77.43c-34.93-2.23-70.02-4.45-104.87-1.23-1.09,.1-2.37,.13-3.06-.71-.7-.85-.42-2.09-.18-3.17,2.33-10.63-3.57-21.29-10.34-29.81S3.21,177.31,0,166.91l17.04-41.54c1.1-2.68,2.69-5.76,5.44-5.78-.06,0-.11,0-2.14,.82Z"/></clipPath><clipPath id="clippath-9"><path class="cls-4" d="M32.57,53.11c-1.36,30.59-8.66,119.07-8.66,119.07l29.84,33.77,77.7-1.15,12.8-144.51s-20.28-31.43-20.17-34.28,.35-22.04,.35-22.04L117.09,0S74.19,3.48,52.99,4.97c-.09,11.86-.65,20.28-.65,20.28,0,0-14.38,20.97-19.78,27.86Z"/></clipPath></defs><g class="cls-1"><g id="Layer_2"><g id="Mælk"><g><path class="cls-8" d="M144.25,60.29l-12.8,144.51-77.01,1.14h-.7l-29.83-33.76s7.3-88.48,8.66-119.07c4.81-6.13,16.74-23.44,19.3-27.15,.31-.46,.48-.71,.48-.71,0,0,.55-8.42,.64-20.28C74.19,3.48,117.1,0,117.1,0l7.33,3.97s-.24,19.19-.35,22.04c-.11,2.85,20.17,34.28,20.17,34.28Z"/><g><g class="cls-7"><path class="cls-8" d="M32.57,53.11c-1.36,30.59-8.66,119.07-8.66,119.07l29.84,33.77,77.7-1.15,12.8-144.51s-20.28-31.43-20.17-34.28,.35-22.04,.35-22.04L117.09,0S74.19,3.48,52.99,4.97c-.09,11.86-.65,20.28-.65,20.28,0,0-14.38,20.97-19.78,27.86Z"/><path class="cls-6" d="M32.57,53.11c-1.36,30.59-8.66,119.07-8.66,119.07l29.84,33.77,77.7-1.15,12.8-144.51s-20.28-31.43-20.17-34.28,.35-22.04,.35-22.04L117.09,0S74.19,3.48,52.99,4.97c-.09,11.86-.65,20.28-.65,20.28,0,0-14.38,20.97-19.78,27.86Z"/></g><g class="cls-3"><path class="cls-6" d="M48.38,23.41c-7.8,8.55-14.59,18.02-19.82,28.68,11.34,6.1,23.21,11.22,35.29,15.29,27.24-2.34,54.54-3.97,82.49-5.74,1.55,2.05,5.19,.86,6.2-1.5s.22-5.09-.75-7.47c-2.97-7.29-7.49-13.83-12.1-20.22-1.75-2.42-3.59-4.9-6.2-6.35s-6.2-1.58-9.11-.18c-22.58-.3-45.79,3.2-67.36,3.02-2.39-1.26-4.48-2.51-8.63-5.54Z"/></g></g></g><path class="cls-5" d="M57.26,29.12c-2.94-1.86-5.19-3.05-5.39-3.16-2.56,3.71-14.49,21.02-19.3,27.15-1.36,30.59-8.66,119.07-8.66,119.07l29.83,33.77h.7c.06-.21,.1-.41,.14-.61l9.32-138.39s-6.19-36.29-6.64-37.83Z"/><text class="cls-2" transform="translate(62.69 116.35)"><tspan x="0" y="0">MÆLK</tspan></text></g></g></g></svg>