<?xml version="1.0" encoding="UTF-8"?><svg xmlns="http://www.w3.org/2000/svg" viewBox="0 0 148.6 254.01"><defs><style>.cls-1{fill:#fff;}.cls-2{isolation:isolate;}.cls-3{mix-blend-mode:multiply;opacity:.68;}.cls-3,.cls-4{fill:#de703b;}.cls-5{fill:#8fb56c;}</style></defs><g class="cls-2"><g id="Layer_2"><g id="Layer_26"><g><path class="cls-5" d="M88.24,60.06c-19.69-.02-37.99,12.54-48.41,29.25-10.42,16.71-15.81,35.48-15.48,55.17,.16,9.36,2.06,13.52-1.05,22.35-4.61,13.07-16.21,21.02-21.16,33.97-3.92,10.23-2.35,30.38,4.02,39.29s17.37,14.31,28.32,13.9c14.35-.53,27.2-10.2,41.55-10.57,11.89-.31,23.54,5.84,35.3,4.03,8.08-1.24,15.26-6.22,20.46-12.54s10.1-12.41,12.87-20.11c3.26-9.09,4.23-20.14,3.9-29.79s-3.75-19.49-10.8-26.09c-4.59-4.31-10.52-7.1-14.67-11.84-5.33-6.08-7.01-14.56-7.15-22.65s1.02-16.17,.49-24.23c-.78-11.76-1.79-23.25-9.22-32.4-4.1-5.04-13.98-9.71-18.94-7.75Z"/><path class="cls-1" d="M24.18,189.26c-6.9,5.14-12.18,12.44-13.75,20.37s.89,16.37,7.05,21.46c.55,.46,1.36,.9,2.03,.51,.86-.5,.49-1.69,.06-2.48-3.09-5.65-4.02-12.35-3.01-18.87,1.01-6.52,3.92-12.86,8.05-18.4,.44-.6,.92-1.25,.9-1.94s-.65-1.14-1.32-.64Z"/><path class="cls-5" d="M112.98,6.34c-10.03,2.67-22.87,11.93-25.08,19.76-2.57,9.09-2.23,12.01,1.43,23.57,1.7,5.37,12.85-7.75,19.5-13.29,2.68-2.24-4.05,7.35-5.67,10.07-1.62,2.73-4.71,6.29-3.79,10.56,0,.02,.01,.03,.03,.05,2.42,2.83,8.45,.74,12.38-.21,4.4-1.07,7.91-2.44,11.78-4.65,5.23-3,9.5-6.65,12.31-11.6,6.93-12.2,6.46-18.07,7.07-36.2,.24-7.08-3.66-5.06-29.96,1.93Z"/><path class="cls-4" d="M81.68,52.74c-.15,.98-.42,2-.84,2.93-.67,1.51-1.73,2.76-3.29,3.18-1.94,.51-3.69-1.17-4.7-2.7-1.01-1.54-1.51-3.35-2.15-5.07-2.21-5.98-6.23-11.12-10.6-15.76s-9.15-8.9-13.27-13.77c-1.46-1.71-2.85-3.53-3.71-5.6-.86-2.08-1.15-4.47-.39-6.59,1.33-3.71,5.67-5.7,9.59-5.31,.93,.1,1.84,.3,2.72,.6,2.82,.92,5.36,2.75,7.54,4.82,4.94,4.66,8.48,10.59,11.75,16.54,4.54,8.25,8.8,17.42,7.35,26.73Z"/><path class="cls-3" d="M80.84,55.67c-.67,1.51-1.73,2.76-3.29,3.18-1.94,.51-3.69-1.17-4.7-2.7-1.01-1.54-1.51-3.35-2.15-5.07-2.21-5.98-6.23-11.12-10.6-15.76s-9.15-8.9-13.27-13.77c-1.46-1.71-2.85-3.53-3.71-5.6-.86-2.08-1.15-4.47-.39-6.59,1.33-3.71,5.67-5.7,9.59-5.31,.93,.1,1.84,.3,2.72,.6-1.51,.47-5.39,2.61-6.22,4.47-1.26,2.83-.63,5.49,.53,8.36,1.17,2.87,3.21,5.3,5.45,7.44,2.24,2.14,4.69,4.04,6.92,6.18,4.94,4.75,8.72,10.68,10.94,17.16,.72,2.08,1.3,4.27,2.69,5.98,1.3,1.61,3.59,2.21,5.49,1.43Z"/></g></g></g></g></svg>