<?xml version="1.0" encoding="UTF-8"?><svg id="Layer_2" xmlns="http://www.w3.org/2000/svg" viewBox="0 0 231.29 168.22"><defs><style>.cls-1{opacity:.6;}.cls-1,.cls-2,.cls-3{fill:#e44b45;}.cls-4{fill:#8a3532;}.cls-2{opacity:.94;}.cls-5{fill:#fc8077;}</style></defs><g id="Layer_56_copy"><path class="cls-5" d="M230.33,2.29c-3.53,9.18-2.5,19.6-1.7,29.51,.86,10.72,1.24,22.29-4.52,31.37-4.63,7.3-12.66,11.9-21,14.22-5.22,1.43-10.8,2.02-16.18,1.53-6.25-.57-12.28-2.56-17.31-6.33-9.34-7.03-11.63-20.22-8.45-31.91,4.6-17.04,20.25-30.51,37.78-32.55,5.74-.67,11.52-.22,17.26-.89,5.74-.67,11.63-2.69,15.11-7.24-.35,.75-.7,1.51-.97,2.29Z"/><path class="cls-5" d="M74.18,58.91c-4.12,7.73-4.98,16.64-9.69,23.43-.43,.62-.89,1.27-1.4,1.86-2.99,3.72-6.84,6.84-11.47,7.78-4.69,.94-9.53-.43-13.95-2.32-12.87-5.49-23.78-15.48-30.37-27.84C.75,49.6-1.48,35.17,.97,21.54c0-.13,.03-.27,.05-.4,2.45,3.72,5.68,7.62,9.83,10.34,4.15,2.75,9.42,4.17,14.14,2.64,5.95-1.97,9.51-7.94,14.51-11.69,9.32-6.95,23.78-4.77,31.53,3.9,7.73,8.64,8.64,22.32,3.15,32.58Z"/><path class="cls-5" d="M191.55,129.86c-2.21,7.73-5.63,15.37-11.58,20.76-8.37,7.57-20.19,9.53-31.29,11.66-12.84,2.42-25.63,5.49-38.69,5.9-8.27,.24-16.75-.65-24.53-3.31-4.52-1.53-8.8-3.66-12.68-6.49-10.34-7.57-16.88-19.66-19.28-32.26-2.4-12.6-.89-25.71,2.56-38.07,4.01-14.27,10.77-28,21.19-38.56,9.99-10.12,23.56-17.1,37.72-17.69,.59-.05,1.21-.08,1.8-.08,15.29-.05,35.43-2.58,50.41,9.05,14.97,11.63,23.78,29.94,26.71,48.66,2.1,13.46,1.43,27.36-2.34,40.44Z"/><path class="cls-2" d="M61.12,73.92c2.33-5.16,4.89-9.84,7.83-14.62-.24-2.97-2-5.24-2.93-8.05-1.62-4.87-4.85-9.45-9.59-11.42-5.76-2.4-12.36-.54-18.2,1.7-5.82,2.23-11.9,4.9-18.07,4.01-6.62-.97-12.09-5.95-15.32-11.79-2.05-3.66-3.07-7.92-3.88-12.2-2.45,13.62-.22,28.06,6.33,40.28,6.6,12.36,17.5,22.35,30.37,27.84,4.42,1.88,9.26,3.26,13.95,2.32,.71-.15,3.42-.36,4.1-.6-.34-1.1,4.17-14.74,5.4-17.46Z"/><path class="cls-2" d="M230.33,2.29c-4.5,5.01-10.39,9.02-16.34,12.31-9.85,5.44-20.54,9.8-28.54,17.72-6.66,6.55-10.25,13.15-8.35,21.94,2.85,3.36,7.45,7.69,9.75,12.07,1.78,3.38,3.88,9.36,5,12.66,4.9,.25,6.54-.31,11.26-1.6,8.35-2.32,16.37-6.92,21-14.22,5.76-9.07,5.39-20.65,4.52-31.37-.81-9.91-1.83-20.33,1.7-29.51Z"/><path class="cls-3" d="M133.22,74.57c-5.6,.88-10.72,3.99-14.52,8.18-3.81,4.19-6.37,9.42-7.94,14.86-.92,3.18-1.52,6.5-1.24,9.8,.28,3.3,1.49,6.6,3.8,8.97,2.22,2.28,5.31,3.57,8.45,4.08,3.14,.51,6.35,.31,9.52-.04,6.98-.77,13.89-2.24,20.58-4.39,4.58-1.47,9.33-3.45,12.08-7.39,2.82-4.03,2.98-9.52,1.26-14.13-1.72-4.61-5.1-8.42-8.89-11.56-6.3-5.22-14.41-9.75-23.09-8.39Z"/><path class="cls-1" d="M67.58,85.49c-7.75,25.55-10.69,62.52,18.07,79.41-.05,0-.13-.03-.19-.03-4.52-1.53-8.8-3.66-12.68-6.49-10.34-7.57-16.88-19.66-19.28-32.26-2.4-12.6-.89-25.71,2.56-38.07,4.01-14.27,10.77-28,21.19-38.56,9.99-10.12,23.56-17.1,37.72-17.69-21.24,7.35-40.12,29.86-47.39,53.69Z"/><path class="cls-4" d="M150.97,67.77c-2.89,.92-4.28,2.48-5.45,5.08-.13,.29-.22,.68,.02,.89,.36,.31,.85-.18,1.1-.59,1.03-1.68,2.69-3.01,4.61-3.46s4.07,.01,5.52,1.34c.37,.34,2.21,1.53,2.27,1.03,.16-1.27-1.2-2.27-2.08-2.83-1.38-.89-4.79-1.84-5.98-1.46Z"/><path class="cls-4" d="M107.47,73.77c-2.89,.92-4.28,2.48-5.45,5.08-.13,.29-.22,.68,.02,.89,.36,.31,.85-.18,1.1-.59,1.03-1.68,2.69-3.01,4.61-3.46s4.07,.01,5.52,1.34c.37,.34,2.21,1.53,2.27,1.03,.16-1.27-1.2-2.27-2.08-2.83-1.38-.89-4.79-1.84-5.98-1.46Z"/><path class="cls-4" d="M124.1,97.03c-1.72,2.43-1.9,5.45-1.33,8.31,.15,.76,.4,1.54,.97,2.18s1.51,1.1,2.43,.99c1.19-.13,1.9-1.09,2.33-2,1.03-2.13,1.43-4.47,1.25-6.81-.07-.83-.21-1.69-.7-2.44-.49-.75-1.38-1.39-2.39-1.47-1.01-.08-2.1,.58-2.56,1.24Z"/><path class="cls-4" d="M141.17,96.91c-1.08,2.77-.52,5.75,.72,8.39,.33,.71,.76,1.4,1.47,1.88s1.73,.7,2.6,.38c1.12-.41,1.58-1.52,1.78-2.5,.49-2.31,.31-4.69-.43-6.91-.27-.79-.62-1.59-1.27-2.2-.66-.61-1.67-1.01-2.67-.85-1,.16-1.9,1.07-2.19,1.82Z"/></g></svg>