<?xml version="1.0" encoding="UTF-8"?><svg xmlns="http://www.w3.org/2000/svg" viewBox="0 0 192.29 310.34"><defs><style>.cls-1{fill:#cf510e;opacity:.38;}.cls-2{isolation:isolate;}.cls-3{mix-blend-mode:multiply;opacity:.34;}.cls-3,.cls-4{fill:#e6903b;}.cls-5{fill:#8fb56c;}</style></defs><g class="cls-2"><g id="Layer_2"><g id="Layer_28_copy_5"><g><path class="cls-4" d="M156.78,226.61c-.09,1.6-.21,3.2-.36,4.8-.24,2.7-.58,5.39-.99,8.08-.23,1.56-.49,3.11-.78,4.66-.63,3.48-1.39,6.94-2.24,10.36-.28,1.13-.57,2.26-.87,3.38-1.74,6.51-3.9,13.05-6.79,19.16-1.1,2.32-2.31,4.58-3.63,6.76-2.98,4.88-6.58,9.32-10.99,13.01-3.25,2.73-6.82,4.95-10.61,6.73-1.96,.92-3.99,1.72-6.06,2.42-6.04,2.01-12.49,3.11-19,3.52l-.02,.8c-1.86,.05-3.73,.07-5.6,.03-2.87-.05-5.76-.2-8.62-.49-10.82-1.07-21.41-3.96-30.25-9.75-2.26-1.47-4.4-3.14-6.4-5.01-.54-.5-1.06-1.02-1.57-1.55-4.79-4.92-8.4-10.8-11.18-17.14-.94-2.13-1.78-4.32-2.53-6.53-1.67-4.84-2.96-9.85-4.01-14.81-.42-1.98-.81-3.97-1.16-5.97-.58-3.23-1.06-6.49-1.44-9.75-.19-1.65-.36-3.31-.49-4.96-.37-4.52-.53-9.04-.43-13.55,.04-2.08,.15-4.15,.3-6.23,.15-2.13,.37-4.25,.66-6.36,.28-2.07,.62-4.13,1.02-6.18,1.29-6.49,3.28-12.88,5.98-18.95,.98-2.24,2.07-4.44,3.27-6.58,4.22-7.64,9.68-14.53,16.36-20.15,1.12-.94,2.28-1.84,3.47-2.7,1.47-1.07,3-2.07,4.56-2.99,9.26-5.51,19.98-8.59,30.63-8.38,.1-.01,.19-.02,.29-.03,2.52-.31,5.05-.42,7.58-.33,12.84,.4,25.55,5.62,35.49,13.96l.05,.05c.82,.68,1.62,1.39,2.4,2.12,1.25,1.17,2.45,2.39,3.6,3.65l.03,.03c6.06,6.65,10.75,14.48,14.09,22.89,1.25,3.12,2.3,6.32,3.17,9.56,.96,3.58,1.7,7.21,2.22,10.86,.42,2.95,.71,5.92,.87,8.89,.23,4.22,.22,8.45-.02,12.67Z"/><path class="cls-3" d="M136.45,161.74c-37.7,17.82-71.21,36.75-115.39,52.84,.15-2.13,.37-4.25,.66-6.36,28.13-14.86,79.93-39.67,108.65-52.33l.05,.05,6,5.77,.03,.03Z"/><path class="cls-3" d="M153.71,194.19c-44.26,15.09-87.48,33.23-129.24,54.27-.43,.21-.88,.42-1.35,.61-.58-3.23-1.06-6.49-1.44-9.75,42.95-18.23,85.91-36.46,128.86-54.69,1.25,3.12,2.3,6.32,3.17,9.56Z"/><path class="cls-3" d="M42,293.52c36.3-19.04,75.06-32.97,112.65-49.37-.63,3.48-1.39,6.94-2.24,10.36-34.16,15.15-68.3,30.36-102.44,45.57-2.26-1.47-4.4-3.14-6.4-5.01-.54-.5-1.06-1.02-1.57-1.55Z"/><path class="cls-3" d="M156.78,226.61c-34.23,11.64-67.82,25.15-100.56,40.45-8.13,3.8-16.68,7.78-25.4,9.32l-2.53-6.53c40.59-22.87,87.12-34.65,128.51-55.91,.23,4.22,.22,8.45-.02,12.67Z"/><path class="cls-1" d="M88.84,310.32c-23.49-29.23-47.85-58.3-68.08-89.51-.1,4.51,.06,9.03,.43,13.55,16.58,26.2,38.42,50.69,59.03,75.47"/><path class="cls-1" d="M119.52,303.55c-11.78-18.75-27.6-42.5-35.22-53.26-17.43-24.59-34.88-49.19-52.31-73.78-1.2,2.14-2.29,4.34-3.27,6.58,25.34,39.73,57.68,88.01,84.74,122.88l6.06-2.42Z"/><path class="cls-1" d="M144.75,277.05c-1.1,2.32-2.31,4.58-3.63,6.76-31.93-41.85-63.94-84.13-89.3-130.15,1.47-1.07,3-2.07,4.56-2.99,29.45,42.13,58.91,84.26,88.37,126.38Z"/><path class="cls-1" d="M156.42,231.41c-.24,2.7-.58,5.39-.99,8.08-2.63-3.58-4.97-7.72-7.87-11.4-21.49-27.38-41.84-56.17-60.26-85.83,2.52-.31,5.05-.42,7.58-.33,20.51,29.83,41.03,59.65,61.54,89.48Z"/><g><path class="cls-5" d="M146,66.73c0-.31,.07-.1,.15-.37-3.64-19.18-14.53-43.54-29.2-60.65-1.34-1.56-5.06-5.95-7.14-5.69-2.77,.34-5.22,2.33-7.47,4.1-12.36,9.73-24.13,20.53-32.01,34.32-4.59,8.02-13.74,19.55-14.91,29.03,1.94,1.14,10.29,6.71,12.1,8.58,5.54,5.73,8.55,7.45,11.96,14.85,5.45,11.83,10.88,36.66,11.21,33.69,2.49-21.92,5.16-47.97,10.39-73.08,1.79-8.61,3.54,41.47,3.54,41.47,0,0,17.91-17.02,31.61-22.15,1.25-.47,8.43-3.25,9.57-3.88,.07-.04,1.14-.06,1.21-.08,0-.04-1.01-.09-1.01-.13Z"/><path class="cls-5" d="M152.03,71.51c-14.24,1.73-35.85,12.15-43.21,22.69-8.54,12.23-9.8,16.39-11.89,33.34-.97,7.86,20.76-8.29,32.39-14.72,4.69-2.6-9.4,9.49-13.03,12.99-3.63,3.5-9.61,7.87-10.93,14.05,0,.03,0,.04,0,.07,1.42,4.46,10.25,2.73,15.78,2.18,6.18-.61,11.42-1.83,17.6-4.16,8.35-3.16,15.88-7.42,22.32-13.8,15.86-15.72,18.67-24.05,29.98-49.34,4.42-9.88-1.69-7.83-39.01-3.29Z"/><path class="cls-5" d="M37.28,65.38C3.11,58.29-2.34,55.76,.75,66.33c7.91,27.07,9.67,35.93,22.77,53.31,5.32,7.05,11.87,11.98,19.3,15.79,5.49,2.82,10.23,4.42,15.9,5.45,5.07,.92,13.09,3.28,14.87-1.27,.01-.03,.02-.04,.02-.07-.59-6.52-5.69-11.45-8.7-15.33-3.01-3.88-14.85-17.37-10.76-14.36,10.13,7.44,28.64,25.65,28.55,17.4-.21-17.79-.95-22.2-7.62-35.49-5.75-11.45-24.74-23.68-37.78-26.39Z"/></g></g></g></g></g></svg>