<?xml version="1.0" encoding="UTF-8"?><svg xmlns="http://www.w3.org/2000/svg" viewBox="0 0 261.8 222.01"><defs><style>.cls-1{fill:#fff;}.cls-2,.cls-3{mix-blend-mode:multiply;}.cls-2,.cls-3,.cls-4{fill:#e44b45;}.cls-5{isolation:isolate;}.cls-3{opacity:.58;}.cls-6{fill:#8fb56c;}</style></defs><g class="cls-5"><g id="Layer_2"><g id="Layer_34"><path class="cls-1" d="M96.57,201.93c-1.99,3.96-5.49,6.99-9.32,9.22-12.16,7.06-27.14,6.48-41.17,5.51-14.03-.97-28.9-1.95-41.4,4.49-.33,.17-.69,.34-1.06,.48-1.25,.47-2.62,.65-3.32-.37-.64-.94-.13-2.21,.47-3.18,4.07-6.49,11.62-9.83,17.08-15.21,11.36-11.18,14.37-36.73,23.22-44.74,2.92-2.64,8.43-1.82,13.75-.72,1.71,.35,3.4,.72,4.98,1.02,6.51,1.22,12.53,4.29,18.18,7.73,6.33,3.86,12.48,8.39,16.46,14.64,3.99,6.24,5.46,14.52,2.13,21.13Z"/><path class="cls-3" d="M54.82,157.41c-.99,1.39-1.93,2.83-2.8,4.3-6.79,11.43-10.37,25.01-19.69,34.5-9.03,9.2-22.94,14-28.71,25.42-1.25,.47-2.62,.65-3.32-.37-.64-.94-.13-2.21,.47-3.18,4.07-6.49,11.62-9.83,17.08-15.21,11.36-11.18,14.37-36.73,23.22-44.74,2.92-2.64,8.43-1.82,13.75-.72Z"/><path class="cls-4" d="M143.78,137.11c-4.26,18.77-12.96,36.68-26.03,50.82-7.17,7.77-15.7,14.34-25.07,19.24-2.57-1.03-5.56-1.82-7.34-3.78-4.09-4.5,.24-12.36-2.89-17.57-2.27-3.78-7.41-4.48-11.81-4.28-4.41,.19-9.19,.8-12.88-1.61-4.32-2.81-5.61-8.8-8.68-12.79-.95-1.25-2.07-2.31-3.52-3.01-2.97-1.45-6.34-.84-9.24,.85,7.4-17.81,20.66-33.15,37.28-42.96,17.42-10.29,38.39-14.43,58.42-11.55,6.81,.98,10.94,5.68,12.36,10.77,.01,.04,.02,.07,.03,.11,1.39,5.13,.54,10.58-.63,15.76Z"/><path class="cls-2" d="M144.38,121.24c-2.24,1.79-4.97,3.08-7.73,3.77-6.12,1.54-12.54,.85-18.85,.85-26.12,.01-52.44,13.39-65.78,35.85-1.05,1.77-2.02,3.58-2.94,5.43-.95-1.25-2.07-2.31-3.52-3.01-2.97-1.45-6.34-.84-9.24,.85,7.4-17.81,20.66-33.15,37.28-42.96,17.42-10.29,38.39-14.43,58.42-11.55,6.81,.98,10.94,5.68,12.36,10.77Z"/><g><path class="cls-6" d="M237.11,80.54c.17-.17,.09-.02,.28-.13,7.93-12.61,14.47-31.95,15.08-49.24,.06-1.57,.24-5.99-1.07-6.95-1.74-1.28-4.17-1.46-6.36-1.67-12.06-1.12-24.35-1.34-36,2.17-6.77,2.04-17.96,3.62-23.56,8.27,.5,1.66,2.33,9.18,2.37,11.19,.15,6.13,.96,8.67-.97,14.6-3.08,9.48-12.95,26.18-11.21,24.7,12.83-10.89,27.92-23.99,43.96-35.21,5.5-3.85-19.6,24.97-19.6,24.97,0,0,19,0,29.42,4.4,.95,.4,6.46,2.65,7.44,2.9,.06,.02,.68,.57,.73,.59,.02-.03-.53-.58-.5-.61Z"/><path class="cls-6" d="M238.03,86.4c-8.96-6.57-26.62-12.21-36.28-10.24-11.21,2.29-14.09,3.94-24.1,12.27-4.65,3.87,16.07,6.37,26,8.94,4.01,1.04-10.26,.31-14.14,.34-3.88,.03-9.54-.7-13.51,2.04-.02,.01-.02,.02-.03,.04-1.52,3.23,4.38,6.95,7.79,9.57,3.82,2.93,7.42,5.03,12.13,7,6.37,2.66,12.85,4.27,19.82,4.13,17.16-.36,23.1-3.51,42.68-11.61,7.65-3.17,3.12-5.25-20.36-22.49Z"/><path class="cls-6" d="M176.29,22.24C160.65,.19,158.88-4.11,155.12,3.42c-9.63,19.26-13.25,25.13-14.9,41.75-.67,6.74,.48,12.96,2.69,19.01,1.64,4.48,3.49,7.88,6.16,11.46,2.39,3.2,5.7,8.76,9.07,7.16,.02,0,.03-.01,.05-.03,3.06-3.94,2.75-9.39,3.07-13.15,.32-3.76,.65-17.54,1.4-13.7,1.86,9.51,2.84,29.45,7.09,24.8,9.15-10.02,11.03-12.87,14.18-23.8,2.71-9.42-1.66-26.29-7.63-34.7Z"/></g><path d="M117.44,76.8c.29,0,.58-.5,.87-.5-.29,0-.58,.5-.87,.5h0Z"/><path class="cls-6" d="M158.32,84.88c-3.16,7.91-8.5,14.94-15.28,20.1-1.16,.89-2.41,1.76-3.09,3.05s-.58,3.14,.65,3.94c1.52,.98,3.48-.19,4.89-1.32,7.42-5.95,14.98-12.32,19.05-20.92,1.03-2.16,1.66-5.11-.17-6.65-.96-.81-2.38-.93-3.55-.49s-2.13,1.37-2.5,2.3Z"/><path class="cls-6" d="M174.29,93.42c-10.33,4.87-19.78,11.6-27.77,19.76-1.08,1.1-2.22,2.58-1.69,4.03,.34,.93,1.31,1.51,2.29,1.63s1.96-.16,2.88-.53c8.82-3.5,12.86-14.3,21.45-18.33,1.06-.5,2.18-.88,3.14-1.55s1.77-1.68,1.82-2.85-1-2.7-2.12-2.17Z"/><path class="cls-6" d="M152.46,108.08c5.55-5.47,11.24-11.04,18.25-14.46,.88-.43,1.81-.83,2.79-.77s2.73,.72,2.85,1.69c.09,.66,0,1.58-.51,2.01s-2.16,.41-2.81,.55"/></g></g></g></svg>