<?xml version="1.0" encoding="UTF-8"?><svg id="Layer_2" xmlns="http://www.w3.org/2000/svg" viewBox="0 0 380.86 135.63"><defs><style>.cls-1{fill:#fc8077;}.cls-2{fill:#e44b45;}</style></defs><g id="Layer_46"><path class="cls-2" d="M188.91,49c1.3,4.53,1.6,13.17,1.04,17.29-1.38,10.51-5.9,17.68-8.59,22.67-1.62,3.03-3.35,6.15-5.22,9.14-5.21,8.33-11.65,15.76-20.87,18.27-4.15,1.14-8.45,1.12-12.7,.48-.03,0-.05-.03-.06-.01-4.27-.67-8.52-1.95-12.63-3.34-29.98-10.29-57.59-26.4-84.02-43.9-5.29-3.52-10.61-7.13-14.84-11.86-4.24-4.73-7.34-10.75-7.4-17.11-.03-2.79,.53-5.57,.31-8.35-.22-2.78,2.67-11.18,.14-12.38-3.23-1.55-11.08,5.8-14.46,7.02-3.4,1.23-8.23,1.12-9.4-2.27-.83-2.35,.84-4.96,3.05-6.1,1.08-.56,2.27-.83,3.48-.98,1.26-.15,2.54-.15,3.79-.15-2.63-.16-4.55-3.36-3.43-5.75,1.1-2.38,4.8-2.98,6.6-1.06,1.69-2.37-1.79-5.54-1.06-8.35,.63-2.41,4.2-2.92,6.24-1.44,2.03,1.46,2.88,4.05,3.63,6.46,.62,2.07,.58,7.91,1.87,10.38,.2,.4,.46,.7,.72,.9,.44,.33,.95,.39,1.52,.29,2.4-.42,5.64-3.99,7.77-4.96,2.6-1.22,4.78-3.21,7.12-4.87C54.18,.01,71.19,.48,86.46,3.27c30.28,5.57,58.58,18.7,86.47,31.74,3.96,1.85,8.14,3.98,11.32,6.86,2.14,1.97,3.84,4.29,4.65,7.13Z"/><path class="cls-1" d="M188.91,49c1.3,4.53,1.6,13.17,1.04,17.29-1.38,10.51-5.9,17.68-8.59,22.67-6.12,11.48-13.56,24.01-26.08,27.41-4.15,1.14-8.45,1.12-12.7,.48-.03,0-.05-.03-.06-.01-1.97-.72-3.46-1.87-3.94-4.23-3.51-18.05,2.37-36.79,11.59-52.7,2.96-5.12,6.35-10.1,10.85-13.91,4.51-3.85,10.32-6.42,16.22-6.11,2.42,.13,4.85,.83,7.01,1.98,2.14,1.97,3.84,4.29,4.65,7.13Z"/><path class="cls-1" d="M260.25,74.16c3.34,9.43,3.15,16.98,2.77,27.57-.23,5.9-1.43,12.88-5.04,17.56-4.23,5.47-11.37,10.88-17.95,13.04-3.59,1.19-7.98,1.37-12.19,1.01-2.4-.19-4.77-.58-6.9-1.03-6.03-1.32-10.93-5.87-14.19-11.11-4.53-7.24-6.42-16.02-5.7-24.55,.73-8.51,2.88-17.41,7.85-24.36,3.79-5.3,9.79-9.3,15.67-12.09,5.59-2.65,12.15-3.52,18.04-1.73,.01,.02,.03,0,.03,0,.32,.1,.63,.2,.93,.32,6.14,2.18,14.49,9.22,16.68,15.37Z"/><path class="cls-2" d="M242.61,58.47c-1.63,.06-6.32-.18-10.72,.96-4.07,1.06-7.85,3.59-9.19,4.65-8.98,7.11-14.38,19.96-16.23,31.28-1.87,11.3,1.24,23.72,9.5,31.68,2.95,2.87,8.23,6.34,12.33,6.15-.15,.07-.28,.13-.45,.16-2.4-.19-4.77-.58-6.9-1.03-6.03-1.32-10.93-5.87-14.19-11.11-4.53-7.24-6.42-16.02-5.7-24.55,.73-8.51,2.88-17.41,7.85-24.36,3.79-5.3,9.79-9.3,15.67-12.09,5.59-2.65,12.15-3.52,18.04-1.73Z"/><path class="cls-1" d="M312.66,83.24c2.53,9.9,3.54,20.92-.54,30.27-3.04,6.92-7.51,15.41-14.54,19.03-5.35,2.72-11.99,3.64-18.08,2.78-1.23-.18-2.42-.43-3.6-.75-8.36-2.3-16.05-7.04-21.74-13.58-5.71-6.53-9.37-14.83-10.24-23.44-.93-9.18,1.41-18.77,6.84-26.21,5.44-7.48,14-12.7,23.18-13.68,1.72-.17,3.43-.25,5.05-.19h.03c7.02,.15,12.88,2.16,15.07,3.74,7.3,5.25,16.35,13.36,18.56,22.04Z"/><path class="cls-2" d="M278.99,57.46c-8.51,2.05-19.08,6.55-24.98,16.13-5.95,9.64-8.8,22.56-4.61,33.08,2.5,6.25,6.84,13.02,11.64,17.72,4.81,4.72,13.13,8.75,19.41,11.01-.32-.02-.63-.07-.94-.08-1.23-.18-2.42-.43-3.6-.75-8.36-2.3-16.05-7.04-21.74-13.58-5.71-6.53-9.37-14.83-10.24-23.44-.93-9.18,1.41-18.77,6.84-26.21,5.44-7.48,14-12.7,23.18-13.68,1.72-.17,3.43-.25,5.05-.19Z"/><path class="cls-1" d="M367.98,88.88c.03,11.96-5.64,23.87-15.11,31.16-4.38,3.37-9.52,5.68-14.94,6.8-6.34,1.33-13.02,1.02-19.11-1.17-7.19-2.59-13.41-7.59-17.87-13.82-4.43-6.22-7.1-13.63-8.15-21.21-1.27-9.24-.06-18.98,4.49-27.14,4.53-8.14,12.61-14.5,21.84-15.92l.31-.03h.02c12.23-1.78,24.57,2.28,33.67,9.92,9.14,7.69,14.8,19.45,14.85,31.4Z"/><path class="cls-2" d="M319.44,47.56c-3.74,1.95-9.05,5.54-11.48,8.45-2.74,3.23-5.8,7.3-7.33,11.24-2.93,7.52-3.92,11.91-4.07,19.99-.15,8.08,3.46,16.69,8.21,23.23,7.18,9.82,21.3,14.01,33.23,16.33l-.08,.05c-6.34,1.33-13.02,1.02-19.11-1.17-7.19-2.59-13.41-7.59-17.87-13.82-4.43-6.22-7.1-13.63-8.15-21.21-1.27-9.24-.06-18.98,4.49-27.14,4.53-8.14,12.61-14.5,21.84-15.92l.31-.03Z"/><path class="cls-2" d="M163.43,61.57c-.47,.39-.38,1.27,.17,1.55s1.32-.14,1.37-.75-.63-1.16-1.54-.8Z"/><path class="cls-2" d="M163.45,82.12c-.58,.18-.8,1.03-.38,1.47,.41,.44,1.27,.27,1.49-.3s-.35-1.41-1.1-1.17Z"/><path class="cls-2" d="M175.33,68.64c-.71,.17-1.04,1.19-.57,1.75s1.54,.38,1.81-.3c.28-.68-.38-1.66-1.25-1.45Z"/><path class="cls-2" d="M160.39,72.87c-.58,.22-.73,1.12-.26,1.52,.47,.4,1.33,.11,1.46-.5,.13-.61-.56-1.27-1.2-1.02Z"/><path class="cls-2" d="M178.5,49.07c-.56,.18-.88,.88-.67,1.44s.85,.89,1.44,.78,1.05-.62,1.16-1.2c.1-.52-.09-1.1-.53-1.4s-1.11-.22-1.4,.39Z"/><path class="cls-2" d="M199.07,84.99l-.35,2.83"/><path class="cls-2" d="M160.92,95.26c-.53,.55-.67,1.4-.45,2.13s.76,1.33,1.41,1.73c.67,.41,1.57,.61,2.22,.17,.56-.37,.77-1.09,.82-1.75,.07-.82-.05-1.69-.5-2.38s-1.25-1.2-2.07-1.14c-.82,.06-1.59,.78-1.43,1.24Z"/><path class="cls-2" d="M148.89,79.23c-.97,.58-1.58,1.72-1.51,2.85,.08,1.13,.86,2.18,1.93,2.55s2.36,0,3.04-.91c.58-.78,.69-1.83,.48-2.78-.18-.82-.62-1.62-1.34-2.06s-1.74-.41-2.6,.35Z"/><path class="cls-2" d="M184.55,60.36c-1.16,.62-2.1,1.78-2.15,3.1-.04,1.32,1.04,2.66,2.36,2.63,.88-.02,1.69-.64,2.07-1.43,.38-.8,.37-1.74,.1-2.58-.14-.46-.37-.9-.73-1.22s-.88-.48-1.65-.49Z"/><path class="cls-2" d="M177.58,81.03c-.46,.31-.54,1.03-.18,1.45s1.07,.45,1.48,.08,.46-1.06,.13-1.49-.85-.42-1.42-.04Z"/><path class="cls-2" d="M148.31,102.43c-.33,.54-.56,1.16-.5,1.79,.06,.63,.48,1.25,1.1,1.4,.49,.12,1.03-.07,1.38-.43s.53-.87,.56-1.37c.03-.6-.16-1.24-.62-1.62s-1.43-.58-1.92,.23Z"/><path class="cls-2" d="M159.78,50.96c-.51,.46-.57,1.32-.14,1.84s1.29,.63,1.84,.23,.7-1.26,.32-1.82-1.22-.76-2.01-.25Z"/><path class="cls-2" d="M152.39,64.64c-.37,.54-.77,1.15-.65,1.79,.14,.72,.98,1.19,1.68,.97,.7-.22,1.13-1.03,.96-1.74s-.87-1.24-1.99-1.02Z"/><path class="cls-2" d="M143.11,92.95c-.6,.4-.72,1.36-.26,1.91s1.4,.62,1.95,.14,.63-1.39,.2-1.97-1.15-.58-1.88-.09Z"/><path class="cls-2" d="M225.99,111.43c-.02,1.75,2.17,3.1,3.73,2.3s1.72-3.38,.28-4.37-3.98,.06-4.01,2.07Z"/><path class="cls-2" d="M228.51,82.01c-.03,1.08,1.28,1.95,2.26,1.5,.98-.45,1.19-2.01,.35-2.69s-2.57-.21-2.61,1.19Z"/><path class="cls-2" d="M214.75,91.91c.2,1,1.55,1.55,2.39,.97,.84-.58,.81-2.03-.04-2.58s-2.65,.07-2.35,1.61Z"/><path class="cls-2" d="M238.23,92.2c-.74,1.86,.43,4.23,2.36,4.76,1.93,.53,4.15-.91,4.46-2.89,.31-1.98-1.38-4.02-3.38-4.1-1.53-.06-3.02,1.16-3.45,2.23Z"/><path class="cls-2" d="M240.57,67.95c-.58,.92,.14,2.34,1.23,2.41,1.08,.07,1.99-1.24,1.53-2.23-.46-.99-2.12-1.2-2.76-.18Z"/><path class="cls-2" d="M223.33,67.92c-.49,.81,.15,2.04,1.09,2.11,.94,.07,1.75-1.05,1.39-1.92s-1.87-1.2-2.48-.18Z"/><path class="cls-2" d="M209.65,107.8c-.3,1.02,.7,2.19,1.76,2.05s1.72-1.53,1.14-2.44c-.57-.9-2.48-1.06-2.9,.38Z"/><path class="cls-2" d="M225.86,121.93c.29,.9,.72,1.8,1.48,2.37,.76,.56,1.92,.67,2.62,.03,.88-.81,.53-2.41-.45-3.1-.98-.69-2.31-.64-3.64,.71Z"/><path class="cls-2" d="M281.17,106.92c.82,1.84,2.11,3.85,4.11,3.99,1.41,.1,2.78-.9,3.28-2.23s.19-2.88-.64-4.02c-1.09-1.51-3.2-2.33-4.93-1.64-1.73,.69-2.32,2.76-1.81,3.9Z"/><path class="cls-2" d="M261.08,90.74c-.67,1.28,.46,3.09,1.91,3.06s2.49-1.9,1.76-3.15c-.73-1.25-2.94-1.31-3.67,.09Z"/><path class="cls-2" d="M267.64,118.55c-.51,1.36,.73,3.04,2.18,2.96,1.45-.08,2.5-1.88,1.85-3.18-.65-1.3-3.26-1.84-4.03,.22Z"/><path class="cls-2" d="M276.69,75.67c-.21,1.49,1.51,2.88,2.92,2.36,1.41-.52,1.82-2.69,.69-3.69-1.13-1-3.37-.35-3.61,1.33Z"/><path class="cls-2" d="M380.86,63.18l-3.91-3.97"/><path class="cls-2" d="M294.8,85.98c-.91,.98-.4,2.86,.87,3.25s2.75-.86,2.57-2.18c-.19-1.32-2.21-2.41-3.44-1.07Z"/><path class="cls-2" d="M367.32,63.34l-1.56-2.08"/><path class="cls-2" d="M260.93,71.66c-.42,1.51,1.08,3.2,2.64,2.97,1.55-.23,2.49-2.29,1.65-3.62s-3.67-1.59-4.28,.64Z"/><path class="cls-2" d="M290.67,123.19c.43,1.05,.87,2.12,1.66,2.93s2.02,1.29,3.07,.88c1.23-.48,1.77-1.99,1.66-3.31-.11-1.3-.73-2.59-1.81-3.32s-2.62-.81-3.67-.04-1.17,2.24-.91,2.87Z"/><path class="cls-2" d="M330.35,99.45c.28,1.37,.74,2.87,1.94,3.6,1.33,.8,3.28,.19,3.97-1.2,.69-1.39,.05-3.27-1.32-4s-3.24-.26-4.58,1.6Z"/><path class="cls-2" d="M339.62,72.01c.92,1.32,2.95,1.69,4.28,.78,1.33-.91,1.72-2.93,.83-4.27s-2.92-1.75-4.26-.87-1.83,2.93-.84,4.35Z"/><path class="cls-2" d="M353.64,89.35c.04,.79,.69,1.51,1.47,1.63s1.62-.37,1.89-1.12-.04-1.66-.72-2.07c-.45-.27-1-.33-1.52-.23-.35,.07-.7,.22-.92,.5s-.23,.71-.2,1.29Z"/><path class="cls-2" d="M313.86,74.47c-.2,.93-.41,1.88-.26,2.82,.15,.94,.74,1.87,1.65,2.13,.85,.25,1.75-.13,2.56-.49,1.09-.49,2.29-1.1,2.69-2.23,.3-.87,.04-1.84-.43-2.64-.66-1.12-1.8-2.04-3.1-2.1-1.3-.06-2.77,.91-3.12,2.52Z"/><path class="cls-2" d="M332.17,83.92c.27,.65,.87,1.17,1.56,1.25,.7,.08,1.45-.34,1.65-1.01,.21-.67-.15-1.42-.68-1.88-.58-.51-1.45-.76-2.14-.42-.69,.34-.74,1.23-.39,2.06Z"/><path class="cls-2" d="M310.48,101.96c-.02,1.62,.53,3.33,1.8,4.35,1.27,1.02,3.31,1.1,4.44-.06,.83-.86,1.02-2.17,.86-3.36-.17-1.28-.72-2.53-1.68-3.39-.96-.86-2.35-1.27-3.58-.9s-1.82,1.57-1.84,3.36Z"/><path class="cls-2" d="M347.69,106.74c.64,.7,1.84,.79,2.57,.19,.73-.6,.88-1.8,.32-2.56-.56-.76-1.75-.97-2.54-.45-.79,.53-1.24,1.84-.35,2.82Z"/><path class="cls-2" d="M327.4,57.61c.09,.61,.56,1.15,1.14,1.36s1.27,.1,1.78-.24c.88-.6,1.18-1.9,.65-2.82-.53-.92-1.81-1.31-2.76-.86-.96,.46-.97,1.5-.81,2.56Z"/><path class="cls-2" d="M327.3,115.19c-.22,.74,.3,1.59,1.04,1.79s1.59-.23,1.91-.93,.14-1.59-.4-2.14c-.45-.47-1.16-.71-1.79-.51s-1.09,.86-.78,1.79Z"/><path class="cls-2" d="M290.74,67.38c-.78,1.42-.02,3.45,1.49,4.03,1.51,.58,3.42-.39,3.85-1.95s-.67-3.37-2.26-3.71c-1.58-.34-3.33,.83-3.09,1.63Z"/></g></svg>