<?xml version="1.0" encoding="UTF-8"?><svg id="Layer_2" xmlns="http://www.w3.org/2000/svg" viewBox="0 0 202.86 174.45"><defs><style>.cls-1{fill:#8fb56c;}.cls-2{fill:#993d19;}</style></defs><g id="Layer_73"><path class="cls-1" d="M87.91,112.12c5.15-5.26,7.32-12.8,7.96-20.13,.64-7.34-.07-14.72,.25-22.08,.06-1.4,.17-2.84,.86-4.06s2.1-2.14,3.46-1.81c1.83,.44,2.49,2.66,2.75,4.52,1.11,8,.69,16.15,1.52,24.18,.83,8.04,3.11,16.3,8.66,22.17-7.87,4.62-18.5,4.01-25.45-2.79Z"/><rect class="cls-2" x=".33" y="116.65" width="202.3" height="57.8"/><path class="cls-1" d="M0,110.2c3.65-4.39,5.47-13.27,2.12-18.11,4.29,2.88,6.66,10.52,5.24,16.94,1.01-6.24,3.13-12.11,6.12-16.92l-2.39,16.45c2.79-6.99,7.97-11.96,13.59-13.02-2.14,4.59-4.27,10.05-6.41,14.64,38.14-.03,74.32,2.03,111.45,.03,.83-5.6-.89-13.11-4.2-16.4,3.68,.81,6.72,5.6,6.89,10.87,1.14-5.99,5.04-10.71,9.4-11.38l-5.64,12.82c4.69-6.55,11.35-10.17,17.93-9.77-5.29,2.91-9.65,6.43-11.73,13.92,19.16-.2,40.42,.07,60.44-.36,.11,5.68-.02,18.51-.02,18.51,0,0-5.1,9.08-8.79,8.76-2.63-.23-4.79-2.88-7.21-4.34-5.42-3.28-11.68-.43-16.98,3.24-5.3,3.67-10.59,8.25-16.48,8.47-8.83,.33-16.47-9.17-25.26-10.42-10.08-1.44-19.66,8.18-29.77,7.24-10.62-.99-19.7-13.44-30.33-12.89-6.96,.36-13.35,6.33-20.31,6.34-5.63,0-10.87-3.89-16.41-5.38-10.79-2.9-21.02,3.47-31.08,9.7C.44,129.88-.02,120.96,0,110.2Z"/><path class="cls-1" d="M95.35,59.03c-3.32-10.19-7.59-21.83-10.37-34.12-.95-4.21,9.76,15.25,9.76,15.25,0,0,1.88-8.04,7.67-12.89,.52-.44,5.01-3.87,5.37-4.43,.61-.96,.6-1.35,.08-2.33-4.56-8.63-15.1-15.8-25.23-19.64-.88-.33-3.36-1.29-4.2-.64-1.12,.86-1.77,2.36-2.38,3.71-3.35,7.42-6.24,15.16-6.87,23.2-.62,8.04,1.78,15.92,5.71,22.94,4.07,7.28,22.43,15.01,20.46,8.96Z"/><path class="cls-1" d="M112.23,22.86c-6.72,2.81-14.72,10.79-15.45,16.85-.86,7.03-.31,9.19,3.44,17.57,1.74,3.89,8.16-6.85,12.23-11.54,1.64-1.89-2.07,5.84-2.91,8.01-.85,2.18-2.64,5.1-1.55,8.23,0,.01,.01,.02,.02,.03,1.98,1.93,5.97-.12,8.61-1.15,2.96-1.15,5.27-2.46,7.73-4.44,3.34-2.67,5.94-5.75,7.39-9.69,3.57-9.71,2.63-14.08,1.18-27.73-.57-5.33-3.08-3.5-20.7,3.86Z"/></g></svg>