<?xml version="1.0" encoding="UTF-8"?><svg id="Layer_2" xmlns="http://www.w3.org/2000/svg" viewBox="0 0 215.71 330.26"><defs><style>.cls-1{fill:#8fb56c;}.cls-2{fill:#993d19;}</style></defs><g id="Layer_74_copy"><rect class="cls-2" x=".35" y="268.79" width="215.11" height="61.47"/><path class="cls-2" d="M65.3,277.34c15.03-5.61,25.13-39.56,28.59-57.8,3.01-15.89,12.55-82.35,20.16-87.08,12.05-7.5,17.56,46.52,18.5,59.73,1.83,25.84,6.5,53.34,22.61,70.86,3.57,3.88,8.03,9.25,5.83,14.38-1.58,3.67-5.66,4.4-9.13,4.59-26.34,1.42-56.6,10.72-86.55-4.68Z"/><path class="cls-1" d="M109.66,.2C64.58,3.3,30.45,41.1,33.44,84.65c2.07,30.19,21.44,55.18,48.15,66.66,1.22,.3,2.42,.68,3.52,1.26,.88,.07,1.71,.04,2.62-.07,2.25-.26,4.17-1.06,6.26-1.89,1.57-.62,2.81-1.72,4.04-2.85,.17-.33,.38-.58,.63-.75,.24-.63,.5-1.25,.79-1.86,1.39-2.92,2.63-5.98,4.34-8.73,1.35-2.18,3.11-4.12,4.5-6.28,1.42-2.2,3.53-4.58,5.81-5.94,2.41-1.43,5.12-1.76,7.75-.77,2.44,.92,3.84,2.78,5.04,5.03,1.64,3.08,2.99,6.2,4.15,9.41,.16,.17,.3,.37,.38,.65,.87,2.9,2.32,5.48,3.44,8.27,.54,1.34,1.41,1.62,2.49,2.45,1,.77,1.88,1.56,3.12,1.96,1.94,.63,3.87,.82,5.82,.73,31.56-12.73,52.81-43.76,50.42-78.49C193.71,29.9,154.74-2.89,109.66,.2Z"/><path class="cls-1" d="M0,261.93c3.88-4.67,5.82-14.11,2.25-19.26,4.56,3.06,7.08,11.19,5.57,18.01,1.07-6.64,3.33-12.88,6.5-18l-2.54,17.49c2.96-7.43,8.47-12.71,14.45-13.85-2.27,4.88-4.54,10.69-6.81,15.57,40.55-.03,79.03,2.15,118.52,.03,.89-5.96-.95-13.94-4.46-17.44,3.91,.86,7.14,5.96,7.33,11.56,1.21-6.37,5.36-11.39,10-12.11l-6,13.63c4.99-6.96,12.07-10.82,19.07-10.39-5.63,3.09-10.26,6.84-12.47,14.8,20.38-.22,42.98,.08,64.27-.38,.12,6.04-.03,19.68-.03,19.68,0,0-5.43,9.66-9.35,9.31-2.79-.25-5.1-3.06-7.67-4.62-5.77-3.49-12.42-.45-18.06,3.45-5.63,3.9-11.26,8.77-17.53,9-9.38,.35-17.52-9.75-26.86-11.08-10.72-1.53-20.9,8.7-31.66,7.7-11.29-1.05-20.95-14.29-32.26-13.7-7.4,.38-14.2,6.73-21.6,6.74-5.99,0-11.56-4.14-17.44-5.72-11.48-3.09-22.35,3.69-33.05,10.32,.29-9.8-.2-19.29-.17-30.73Z"/></g></svg>