<?xml version="1.0" encoding="utf-8"?>
<!-- Generator: Adobe Illustrator 26.3.1, SVG Export Plug-In . SVG Version: 6.00 Build 0)  -->
<svg version="1.1" id="Layer_1" xmlns="http://www.w3.org/2000/svg" xmlns:xlink="http://www.w3.org/1999/xlink" x="0px" y="0px"
	 viewBox="0 0 1440 160" style="enable-background:new 0 0 1440 160;" xml:space="preserve">
<style type="text/css">
	.st0{fill:#8FB56C;}
</style>
<path class="st0" d="M0,96l48-5.3C96,85,192,75,288,85.3c96,10.7,192,42.7,288,48c96,5.7,192-16.3,288-42.6c96-26.7,192-58.7,288-48
	c96,10.3,192,64.3,240,90.6l48,26.7V0h-48c-48,0-144,0-240,0S960,0,864,0S672,0,576,0S384,0,288,0S96,0,48,0H0V96z"/>
</svg>
