<?xml version="1.0" encoding="UTF-8"?><svg xmlns="http://www.w3.org/2000/svg" viewBox="0 0 288.76 261.92"><defs><style>.cls-1{fill:#8a553b;}.cls-2{opacity:.63;}.cls-2,.cls-3,.cls-4,.cls-5,.cls-6,.cls-7,.cls-8,.cls-9{mix-blend-mode:multiply;}.cls-2,.cls-4,.cls-5,.cls-10,.cls-6,.cls-7,.cls-9{fill:#e6903b;}.cls-3,.cls-11{fill:#e44b45;}.cls-12{isolation:isolate;}.cls-4{opacity:.64;}.cls-5{opacity:.65;}.cls-6{opacity:.35;}.cls-7{opacity:.59;}.cls-13,.cls-8{fill:#de703b;}.cls-14{fill:#8fb56c;}.cls-9{opacity:.56;}</style></defs><g class="cls-12"><g id="Layer_2"><g id="Layer_100"><g><path class="cls-13" d="M81.73,119.84c4.1,2.11,7.73,4.99,10.9,8.36,1.41,1.5,2.73,3.1,3.95,4.76,1.1,1.5,2.12,3.06,3.06,4.65,2,3.38,3.67,6.94,5.1,10.6,.6,1.51,1.15,3.05,1.67,4.59,.95,2.81,1.8,5.66,2.58,8.51,.28,1.01,.54,2.01,.8,3.02,.3,1.14,.58,2.28,.85,3.42,1.33,5.52,2.43,11.08,3.29,16.69,.21,1.33,.4,2.66,.58,3.99,.94,7.01,1.51,14.07,1.67,21.14,.09,4.07,.04,8.21-1.13,12.1-.57,1.88-1.43,3.71-2.59,5.3-1.18,1.63-2.66,3.01-4.43,3.95v.02s-.08,.03-.13,.05-.08,.04-.12,.06v-.02c-3.74,1.34-7.99,.67-11.58-1.06-3.66-1.76-6.76-4.52-9.7-7.33-1.35-1.3-2.69-2.62-4-3.95-1.15-1.17-2.3-2.37-3.42-3.58-2.39-2.54-4.7-5.16-6.94-7.84-.73-.87-1.45-1.74-2.16-2.62-3.75-4.63-7.3-9.43-10.63-14.37-.61-.91-1.21-1.82-1.81-2.73-.61-.93-1.2-1.85-1.79-2.79-.91-1.46-1.82-2.93-2.69-4.42-.3-.49-.59-1-.88-1.51-2.04-3.55-3.89-7.19-5.45-10.95-.45-1.09-.87-2.2-1.27-3.31-.32-.89-.62-1.79-.89-2.71-2.49-8.15-3.25-16.98-1.03-25.2,2.04-7.53,6.79-14.48,13.52-18.34l-.09-.2,.1,.04c.32-.14,.64-.25,.97-.37,.3-.16,.61-.32,.92-.46l.04-.1,.08,.2c.17-.05,.34-.1,.5-.15,7.27-2.15,15.38-.95,22.15,2.55Z"/><g><path class="cls-14" d="M40,81.56c-1.34-3.87,10.8,13.32,10.8,13.32,0,0,.92-7.77,5.86-12.95,.44-.47,4.3-4.17,4.58-4.74,.47-.96,.42-1.33-.17-2.2-5.2-7.64-15.89-13.28-25.83-15.82-.87-.22-3.3-.86-4.02-.16-.96,.93-1.42,2.41-1.85,3.75-2.37,7.34-4.27,14.93-4.01,22.57,.15,4.44,1.27,8.72,3.05,12.74,1-.11,2.81-.61,3.94-.4,3.43,.63,5.97,1.66,8.99,3.55,4.83,3.04,12.45,13.02,11.88,11.77-4.2-9.25-9.3-20.15-13.22-31.43Z"/><path class="cls-14" d="M65.44,76.75c-6.03,3.35-12.71,11.71-12.77,17.49-.06,6.71,.68,8.69,5.1,16.18,2.05,3.48,6.96-7.31,10.29-12.15,1.35-1.96-1.33,5.72-1.89,7.85-.57,2.14-1.94,5.08-.59,7.91,0,.01,.01,.02,.03,.03,2.07,1.61,5.61-.75,7.99-2,2.66-1.4,4.7-2.88,6.81-4.99,2.86-2.87,4.98-6.04,5.93-9.91,2.34-9.52,.99-13.53-1.82-26.23-1.1-4.96-3.27-2.97-19.08,5.82Z"/><path class="cls-14" d="M15.98,103.89C.53,113.31-2.27,114.21,1.5,117.62c9.66,8.71,12.48,11.86,21.91,14.53,3.83,1.08,7.64,.8,11.54-.27,2.88-.79,5.18-1.84,7.71-3.46,2.26-1.45,6.06-3.37,5.68-5.96,0-.02,0-.02-.01-.04-1.8-2.58-5.03-2.83-7.17-3.39-2.14-.56-10.13-2.02-7.77-2.23,5.86-.51,17.66,.55,15.65-2.95-4.34-7.54-5.69-9.16-11.55-12.42-5.05-2.81-15.62-1.12-21.52,2.47Z"/></g><path class="cls-8" d="M99.93,165.13c3.59-.72,6.5-.3,9.86-.79,.3,1.14,.58,2.28,.85,3.42-7.8-.36-15.68,.95-22.94,3.84,1.22-4.14,8-5.61,12.22-6.47Z"/><path class="cls-8" d="M52.18,178.84c2.17-2.53,6.25-6.34,8.01-7.62,13.59-9.94,28.18-19.91,44.55-23.02,.6,1.51,1.15,3.05,1.67,4.59-8.52,1.03-21.79,7.13-29.13,10.97-7.54,3.94-14.47,9.5-21.41,14.43-.47,.33-1.67,1.37-2.8,2.14"/><path class="cls-8" d="M92.63,128.2c1.41,1.5,2.73,3.1,3.95,4.76-6.01-.37-14.26,.49-18.66,2.04-5.48,1.93-16.32,8.08-16.98,7.73-1.07-.57,8.28-7,10.93-8.39,2.52-1.32,13.18-6.67,20.76-6.14Z"/><path class="cls-8" d="M95.65,209.18c.54-.08,1.18-.12,1.55,.29,.8,.9-.72,1.99-1.88,2.28-4.76,1.19-9.21,3.61-12.81,6.94-1.15-1.17-2.3-2.37-3.42-3.58,1.93-.51,3.67-1.55,5.45-2.44,3.49-1.74,7.26-2.92,11.11-3.5Z"/><path class="cls-8" d="M64.39,184.15c-2,1.73-3.82,3.81-5.04,6.14-.61-.91-1.21-1.82-1.81-2.73,1.94-1.21,3.11-3.01,4.73-4.92,2.58-3.03,13.46-7.7,14.32-7.1,.01,0,.02,.01,.02,.02,.17,.16-.26,.64-1.52,1.51-3.79,2.64-7.21,4.07-10.7,7.08Z"/><path class="cls-8" d="M113.93,184.45c.21,1.33,.4,2.66,.58,3.99-.36,.06-.72,.1-1.07,.13-12.64,1.3-24.94,5.74-35.5,12.8-2.2,1.47-4.41,3.15-5.61,5.51-.07,.13-.13,.26-.19,.4-.73-.87-1.45-1.74-2.16-2.62,1.93-.92,3.73-2.34,5.44-3.64,11.22-8.57,24.58-14.32,38.51-16.57Z"/><path class="cls-8" d="M65.92,151.03c-.79,1.17-4.83,3.49-6.03,4.22-5.04,3.1-9.88,6.87-12.81,12.01-.12,.2-.23,.41-.34,.62-.45-1.09-.87-2.2-1.27-3.31,3.03-5.43,7.1-10.1,12.93-12.4,1.53-.6,9.28-3.75,7.53-1.15Z"/><path class="cls-1" d="M77.83,174.8s-2.06,1.31-2.16,1.28l2.16-1.28Z"/><path class="cls-8" d="M59.58,117.29c-3.5,3.31-5.53,7.96-6.35,12.71-.84,4.88-2.14,11.72-1.47,16.62,3.4,25.12,15.99,49.44,33.54,67.72,4.73,4.93,7.04,6.78,11.65,9.99,4.37,3.04,10.51,4.24,15.5,2.65-1.18,1.63-2.66,3.01-4.43,3.95v.02s-.08,.03-.13,.05-.08,.04-.12,.06v-.02c-3.74,1.34-7.99,.67-11.58-1.06-3.66-1.76-6.76-4.52-9.7-7.33-11.77-11.28-22.05-24.09-30.75-37.88-4.55-7.21-8.69-14.75-11.18-22.9-2.49-8.15-3.25-16.98-1.03-25.2,2.04-7.53,6.79-14.48,13.52-18.34l-.09-.2,.1,.04c.32-.14,.64-.25,.97-.37,.3-.16,.61-.32,.92-.46l.04-.1,.08,.2c.17-.05,.34-.1,.5-.15Z"/></g><path class="cls-11" d="M118.95,128.17c-3.9,9.15-5.36,20.36,.21,28.6,1.56,2.32,3.59,4.29,5.78,6.15,.96,1.22,2.49,2.1,3.77,3.09,3.83,2.94,5.86,7.63,7.34,12.23,1.48,4.6,2.61,9.41,5.26,13.44,2.62,3.98,7.19,7.12,11.89,6.48,.07,0,.14-.02,.21-.02-1.55-1.33-3.12-2.7-4.16-4.46-1.04-1.76-1.48-4.01-.62-5.85,1.53-3.32,5.97-3.72,9.61-4.04,14.67-1.23,28.99-9.12,36.53-21.77,7.53-12.64,7.33-29.93-1.75-41.51-5.23-6.67-12.85-11.12-20.81-14.05-3.04-1.12-6.21-2.04-9.42-2.67-7.96-1.56-16.21-1.34-23.54,1.92-9.45,4.19-16.25,12.95-20.3,22.45Z"/><path class="cls-3" d="M118.95,128.17c-3.9,9.15-5.36,20.36,.21,28.6,1.56,2.32,3.59,4.29,5.78,6.15,.96,1.22,2.49,2.1,3.77,3.09,3.83,2.94,5.86,7.63,7.34,12.23,1.48,4.6,2.61,9.41,5.26,13.44,2.62,3.98,7.19,7.12,11.89,6.48-4.16-.8-7.56-4.31-9.29-8.26-1.79-4.04-2.2-8.53-2.72-12.93l-.11-.92c-.58-4.7-1.5-9.55-4.33-13.35-2.37-3.19-5.87-5.32-8.62-8.19,0,0-.02-.02-.03-.03-5.96-6.23-7.9-15.76-5.73-24.12,2.18-8.36,8.14-15.49,15.54-19.96,7.4-4.48,16.13-6.44,24.77-6.6,.04,0,.07,0,.1,0-7.96-1.56-16.21-1.34-23.54,1.92-9.45,4.19-16.25,12.95-20.3,22.45Z"/><path class="cls-14" d="M153.06,97.63c-1.67-8.62-1.76-12.51-2.73-19.93-.15-1.18-.31-2.4-.05-3.55s1.04-2.24,2.05-2.35c1.28-.15,2.29,1.19,3,2.44,3.46,6.17,4.46,20.03,5.32,20.18,.93,.17,.1-.39,.54,.58,2.01,4.45,2.46-9.89,3.61-14.91,.93-4.07,2.3-8.38,5.35-10.63,.66-.49,1.47-.88,2.22-.59,.87,.33,1.35,1.49,1.34,2.55s-.4,2.08-.76,3.06c-1.74,4.67-3.14,9.52-4.17,14.48-.44,2.12-.65,4.8,.87,6.07,1.08,.9,2.63,.61,3.74-.25,1.11-.86,1.88-2.18,2.66-3.43,2.58-4.11,5.61-7.83,8.99-11.05,.58-.55,1.18-1.1,1.9-1.35,.71-.26,1.56-.17,2.1,.43,.81,.91,.59,2.48,.17,3.7-.87,2.5-2.32,4.65-3.75,6.76l-6,8.88c-1.44,2.13-3.04,4.39-5.29,5.07-2.81,.85-5.62-1.01-8.35-2.14-2.61-1.08-5.41-1.51-8.17-1.26-1.56,.14-4.41-1.91-4.57-2.75Z"/><path class="cls-14" d="M159.52,90.34c.12,.74,.24,1.49,.55,2.14s.86,1.2,1.5,1.26c.69,.06,1.33-.7,1.6-1.7,.11-.39,.61-.02,.89-.27s.67-.38,.99-.21c.29,.16,.45,.52,.55,.87,.46,1.53,.27,3.3-.49,4.65-.57,1.01-1.51,1.81-2.54,1.84-.79,.02-1.54-.39-2.18-.91-1.5-1.23-2.61-3.27-2.52-5.41,.03-.66,.17-1.34,1.65-2.25Z"/><path class="cls-14" d="M153.69,67.83c-1.21,.27-2.42-.69-3.02-1.95-.6-1.25-.72-2.74-.79-4.17-.08-1.43-.14-2.91-.65-4.22s-1.59-2.42-2.82-2.38c-1.39,.05-2.48,1.57-2.75,3.16s.09,3.23,.48,4.78c.49,1.99,.94,2.76,2.11,5.66,.76,1.88,1.52,5.11,.07,6.31s-7.03,.56-7.97-1.2c-1.1-2.04,.02-4.88-.86-7.06-.54-1.34-1.76-2.15-2.99-2.49s-2.52-.3-3.78-.39c-6.04-.43-11.98-4.39-14.78-10.66-2.8-6.27-1.98-14.71,2.41-19.57,1.74-1.93,3.91-3.25,5.86-4.89,1.95-1.64,3.77-3.79,4.28-6.54,.79-4.22-1.69-8.62-.78-12.8,.86-3.96,4.36-6.2,7.51-7.97,1.92-1.08,4.23-2.15,6.08-.91,1.63,1.09,2.17,3.5,3.35,5.21,1.71,2.48,4.68,3.29,7.4,3.18,2.73-.11,5.39-.98,8.12-1.18,2.72-.19,5.69,.43,7.56,2.75,2.05,2.56,2.23,6.57,1.31,9.91s-2.77,6.2-4.43,9.12-3.22,6.1-3.42,9.6c-.32,5.4,2.6,10.6,1.96,15.96-.68,5.69-8.23,12.45-9.44,12.73Z"/><path class="cls-14" d="M188.02,74.48c.69,2.22,4.83-1.13,6.85-1.26,2.01-.12,2.79-.1,2.76,2.25-.04,2.6-5.09,4.86-5.74,7.35-.56,2.16,3.05,3.98,4.75,5.07,1.69,1.09,3.82,.97,5.6,.1,1.78-.87,3.27-2.41,4.57-4.09,1.67-2.16,3.26-4.7,5.64-5.53,2.23-.77,4.6,.16,6.91,.43,4.12,.48,8.39-1.31,11.32-4.73,2.93-3.43,4.45-8.42,4.03-13.24-.18-2.08-.7-4.2-.29-6.24,.7-3.42,3.73-5.4,6.58-6.53s5.99-1.93,8.04-4.51c2.23-2.8,2.56-7.24,1.27-10.76s-3.96-6.17-6.94-7.76-6.26-2.23-9.52-2.64c-3.54-.44-7.11-.62-10.68-.54-2.43,.05-5.32,.58-6.34,3.15-.93,2.33,.12,5.52-1.36,7.42-1.68,2.14-5.06,.7-6.94,2.6-1.26,1.27-1.3,3.58-.76,5.42,.54,1.84,1.54,3.46,2.09,5.29,1.46,4.89-.99,10.9-5.16,12.65-2.85,1.2-6.04,.56-8.97,1.46-4.94,1.52-9.92,7.44-7.71,14.61Z"/><path class="cls-14" d="M164.83,69.25c2.46-.94,3.51-4.62,5.92-5.7s5.62-.41,6.81,2.27c1.06,2.36,.4,5.73,2.16,7.44,1.38,1.34,3.6,.74,4.86-.76,1.26-1.5,1.78-3.62,2.2-5.66s.81-4.17,1.89-5.84c1.56-2.41,4.24-3.41,6.79-3.91s5.21-.67,7.54-1.99,4.26-4.24,3.73-7.2c-.4-2.2-2-3.79-2.85-5.8-.94-2.22-.88-4.98,.14-7.15s3-3.69,5.11-3.94c1.23-.15,2.56,.09,3.62-.64,1.2-.82,1.64-2.56,1.98-4.14l2.4-11.25c.39-1.84,.78-3.82,.18-5.58-.61-1.81-2.12-2.97-3.61-3.83-5.87-3.39-12.9-3.92-19.09-1.43-3.31,1.33-6.5,3.5-9.99,3.48-1.89,0-3.72-.66-5.59-.94s-3.93-.12-5.4,1.26c-1.84,1.74-2.21,4.84-2.07,7.6,.13,2.76,.62,5.59-.04,8.24-1.32,5.27-6.69,8.05-8.08,13.3-1.7,6.38,3.2,13.4,1.22,19.67-.49,1.54-1.35,2.86-2.06,4.28-.7,1.42-1.26,3.05-1.03,4.67,.23,1.62,1.55,4.22,3.26,3.56Z"/><path class="cls-10" d="M279.81,118.68c-1.44,6.87-4.85,13.33-9.85,18.26-1.3,1.29-2.73,2.49-4.41,3.25-1.67,.75-3.62,1.03-5.36,.44-1.76-.6-3.15-2.04-4.09-3.65-2.52-4.36-1.89-10.32,.16-13.67,2.48-4.03,5.62-7.64,9.26-10.67,3.63-3.03,7.76-5.48,12.18-7.19,.61-.23,1.34-.45,1.88-.09,.51,.32,.64,.99,.72,1.58,.5,3.91,.32,7.89-.49,11.74Z"/><path class="cls-4" d="M266.81,120.98c-.13-2.83-.73-5.81-1.29-8.34-3.64,3.03-6.78,6.64-9.26,10.67-2.05,3.35-2.68,9.31-.16,13.67,.94,1.61,2.33,3.05,4.09,3.65,1.74,.59,3.69,.31,5.36-.44,1.68-.76,3.11-1.96,4.41-3.25,5-4.93,8.41-11.39,9.85-18.26-3.68-.19-8.91,1.2-13,2.3Z"/><path class="cls-10" d="M288.25,125.65c-4.28,9.19-12.75,16.31-22.53,18.97-1.79,.49-3.79,.78-5.62,.53-1.37-.19-2.64-.69-3.66-1.65-1.86-1.75-2.29-4.56-2.03-7.1,.36-3.46,2.28-6.03,4.82-8.09,2.3-1.87,4.87-3.41,7.6-4.57,5.93-2.55,12.61-3.38,18.97-2.2,1.17,.21,2.54,.67,2.88,1.82,.23,.76-.09,1.57-.43,2.29Z"/><path class="cls-2" d="M266.83,123.74c-.58,7.52-2.91,14.9-6.73,21.41-1.37-.19-2.64-.69-3.66-1.65-1.86-1.75-2.29-4.56-2.03-7.1,.36-3.46,2.28-6.03,4.82-8.09,2.3-1.87,4.87-3.41,7.6-4.57Z"/><path class="cls-10" d="M262.86,130.43c-.45,2.28-1.13,4.51-2.01,6.66-1.63,4.01-3.97,7.72-6.94,10.86-2.06,2.18-4.51,4.14-7.43,4.79s-6.35-.31-7.88-2.88c-.57-.95-.83-2.01-.92-3.11-.1-1.28,.02-2.61,.17-3.89,.34-2.9,1.07-6.25,3.67-7.35,2.49-10.02,8.26-19.2,16.21-25.78,.73-.6,1.68-1.22,2.56-.89,.75,.29,1.11,1.13,1.35,1.9,2.04,6.32,2.52,13.17,1.22,19.69Z"/><path class="cls-5" d="M272.47,146.73c-.12-.14-.16-.31-.18-.49-.2,.02-.41-.01-.54-.12l-.04-.03c-.46-.35-.61-.94-.18-1.41,.1-.11,.22-.2,.33-.29-.03,.02-.07,.03-.13,.08-.03,0-.06,0-.08,0-.04,.01-.08,.02-.12,.03-.06,.02-.12,.04-.18,.04-.02,0-.04,.02-.05,.02h-.03c-.68,.11-1.13-.45-.96-1.01v-.02h0s.03-.09,.05-.12c.03-.06,.06-.12,.1-.17,0,0,0-.02,.02-.03,.03-.04,.08-.01,.11-.05h-.09c.17-.17,.09-.36,.28-.48,.09-.05,.58-.1,.66-.15,.08-.05,.16-.09,.25-.12-.12,.03-.07,0,.14-.07,.04-.01,.07-.02,.11-.03,0,0,.03-.02,.07-.04,.08-.04,.21-.1,.27-.13,.21-.11,1.14-.71,1.42-.84,.04-.02,.05-.02,.04-.02h.02c.31-.17-.11,.04,.09-.08,.12-.06,.23-.13,.35-.19,.24-.13,.53-.35,.79-.48-1.76-1.34-3.86-2.14-5.97-2.82-9.34-3.02-20.08-1.27-27.98,4.54l-2.91,6.27c.81-1.27,2.15-2.18,3.59-2.6,1.48-.43,3.05-.41,4.59-.29,5.01,.37,9.9,1.69,14.9,2.18,3.77,.37,7.73,.2,11.24-1.1h0Z"/><path class="cls-10" d="M273.27,147.51c-4.94,5.05-8.98,8.46-13.24,11.21-2.81,1.81-5.71,3.34-9.04,4.86-2.02,.92-4.12,1.76-6.27,2.32-2.41,.63-4.87,.92-7.34,.62-.03,0-.07-.01-.1-.02-1.94-.25-4.02-1.06-4.78-2.85-.57-1.34-.25-2.88,.23-4.26,1.29-3.76,4.68-6.29,6.12-9.03,1.7-3.24,4.32-5.96,7.43-7.88,2.72-1.67,5.81-2.73,8.99-3,6.83-.57,22.78,3.13,18,8.03Z"/><path class="cls-9" d="M260.03,158.72c-2.81,1.81-5.71,3.34-9.04,4.86-2.02,.92-4.12,1.76-6.27,2.32-1.96,.06-3.92,.12-5.89,.18-.78,.02-1.65,.02-2.23-.51-.8-.72-.64-2.01-.27-3.02,.93-2.55,2.52-5.76,5.54-6.06,6.12-.62,12.37,.16,18.16,2.23Z"/><path class="cls-7" d="M244.73,125.9c2.33,11.31,2.42,22.96,.3,33.88-2.23,.39-4.85,.11-6.44-1.89-1.19-1.5-1.49-3.58-1.55-5.51-.18-5.26,2.46-9.72,2.88-13.73,.49-4.75,2.21-9.16,4.8-12.74Z"/><path class="cls-10" d="M241.27,152.37c-.58,1.61-1.26,3.18-2.05,4.7-2.98,5.8-7.4,10.86-12.78,14.55-.8,.54-1.71,1.08-2.66,.91-1.06-.19-1.76-1.19-2.26-2.15-1.15-2.24-1.66-4.65-1.74-7.15-.11-3.64,.69-7.48,1.72-11.24,2.72-9.95,8.74-18.97,16.89-25.3,.56-.44,1.22-.89,1.93-.77,.95,.16,1.42,1.23,1.69,2.16,2.3,7.91,2.03,16.53-.74,24.29Z"/><path class="cls-4" d="M239.97,156.57c-2.98,5.8-7.4,10.86-12.78,14.55-.8,.54-1.71,1.08-2.66,.91-1.06-.19-1.76-1.19-2.26-2.15-1.15-2.24-1.66-4.65-1.74-7.15,.38-.27,.76-.53,1.14-.77,5.44-3.45,11.86-5.34,18.3-5.39Z"/><path class="cls-10" d="M221.85,167.87c4.73-4.63,10.89-7.78,17.41-8.91,6.52-1.12,13.38-.22,19.38,2.56,1.49,.69,3.12,1.78,3.18,3.42,.06,1.47-1.17,2.63-2.32,3.56-9.91,8.02-21.33,14.92-34,16.35-2.14,.24-4.64,.18-6.02-1.48-1.31-1.58-1.02-3.9-.54-5.89,.88-3.67,1.12-7.87,2.9-9.62Z"/><path class="cls-10" d="M216.58,190.97c-9.11,14.23-22.75,24.91-36.68,34.48-25.22,17.35-53.1,32.29-83.47,36.15-3.04,.38-6.24,.63-9.06-.56-1.76-.75-3.29-2.25-3.99-3.99-.43-1.04-.56-2.16-.26-3.27,1.14-4.2,6.69-4.88,11.04-5,28.82-.84,55.75-14.17,80.35-29.2,15.9-9.71,31.85-20.86,40.9-37.14-8.19-13.17-6.43-29.83,2.76-40.86,.61-.72,1.35-1.47,2.29-1.49,1.32-.03,2.18,1.36,2.69,2.58,.09,.21,.17,.42,.25,.63,6.14,15.46,2.17,33.63-6.82,47.67Z"/><path class="cls-6" d="M223.15,142.67c.09,.21,.17,.42,.25,.63-.47,.3-1.04,.7-1.67,1.28-2.6,2.42-4.63,5.06-6.22,8.23-1.88,3.75-2.12,7.55-.52,11.42,1.6,3.88,3.79,7.62,4.24,11.79,.87,8.1-4.9,15.29-10.65,21.06-30.27,30.37-70.88,50.75-113.58,54.66-2.95,.27-6.04,.5-8.6,2-1.29,.75-2.39,1.95-3.02,3.31-.43-1.04-.56-2.16-.26-3.27,1.14-4.2,6.69-4.88,11.04-5,28.82-.84,55.75-14.17,80.35-29.2,15.9-9.71,31.85-20.86,40.9-37.14-8.19-13.17-6.43-29.83,2.76-40.86,.61-.72,1.35-1.47,2.29-1.49,1.32-.03,2.18,1.36,2.69,2.58Z"/></g></g></g></svg>